<?xml version="1.0" standalone="no"?>
<!DOCTYPE svg PUBLIC "-//W3C//DTD SVG 1.1//EN" "http://www.w3.org/Graphics/SVG/1.1/DTD/svg11.dtd">
<svg xmlns="http://www.w3.org/2000/svg" xmlns:xlink="http://www.w3.org/1999/xlink" version="1.1" id="Layer_1" x="0px" y="0px" viewBox="0 0 720 720" style="enable-background:new 0 0 720 720;" xml:space="preserve" width="720" height="720">
<style type="text/css">
	.st0{fill:#3098A4;}
	.st1{fill:none;stroke:#EFE9DE;stroke-width:2;stroke-linecap:round;stroke-linejoin:round;}
</style>
<rect x="0" y="0" class="st0" width="720" height="720"/>
<g id="_x30_06_x5F_B_00000091004098368391962980000017653213783358822035_">
	<path class="st1" d="M0,436.2c3.4-0.1,6.9-0.1,10.3-0.1c6.5,0,13-0.1,19.4-0.3c6.5-0.2,13.1-0.6,19.6-1.3   c6.4-0.7,12.8-1.7,19.2-3.1c6.5-1.4,12.9-3.3,19.3-5.6c6.7-2.3,13.5-5.2,20.1-8c3.3-1.4,6.7-2.9,10-4.4c3.3-1.5,6.7-2.9,10-4.3   c6.6-2.7,13.1-5.2,19.7-7c6.6-1.8,13.4-3.1,20.3-3.6c6.9-0.5,14-0.3,21.1,0.6c7.1,0.9,14.3,2.3,21.5,4.1c7.2,1.8,14.4,4.1,21.6,6.5   c7.2,2.4,14.4,4.9,21.6,7.3c7.2,2.4,14.4,4.6,21.6,6.5c7.2,1.9,14.4,3.5,21.6,4.9c7.2,1.4,14.4,2.5,21.6,3.4   c7.2,0.9,14.4,1.6,21.6,2.2c7.2,0.6,14.4,1,21.6,1.3c7.2,0.3,14.4,0.5,21.6,0.7c7.2,0.2,14.4,0.3,21.6,0.4   c7.2,0.1,14.4,0.2,21.6,0.2c7.2,0,14.4,0,21.6-0.2c7.2-0.2,14.3-0.6,21.3-1.6c7-1.1,13.9-2.8,20.5-6.4c6.6-3.5,12.8-8.9,18.7-15   c5.9-6.1,11.6-13,17.4-16.8c5.8-3.8,11.9-4.5,17.7-2c5.8,2.6,11.5,8.4,17.3,13.5c5.9,5.1,12,9.4,18.1,10c6.1,0.6,12.2-2.6,18.1-7.3   c1.4-1.2,2.9-2.4,4.3-3.7c1.4-1.3,2.8-2.6,4.3-3.9c1.4-1.3,2.9-2.5,4.3-3.7c1.4-1.1,2.9-2.2,4.4-3.1c1.4-0.8,2.9-1.5,4.4-1.9   c0.7-0.2,1.5-0.4,2.2-0.5c0.7-0.1,1.5-0.2,2.2-0.2c0.8,0,1.5,0,2.2,0.1c0.7,0.1,1.5,0.2,2.2,0.4c1.5,0.4,2.9,0.9,4.4,1.7   c1.6,0.8,3.1,1.9,4.6,3.1c1.5,1.2,3,2.6,4.4,4c1.4,1.4,2.9,2.9,4.3,4.4c1.4,1.5,2.8,3,4.2,4.5c3,3.1,6,6,9.1,8.7   c3.1,2.7,6.3,5,9.5,6.9c3.2,1.9,6.4,3.3,9.7,4.4c3.3,1.1,6.6,1.9,9.9,2.5c3.3,0.6,6.5,1,9.7,1.3c3.3,0.3,6.5,0.5,9.8,0.6   c4,0.2,8.2,0.3,12.4,0.3"/>
	<path class="st1" d="M0,289.8c1.2-1.5,2.5-3,3.7-4.4c2.1-2.4,4.3-4.5,6.6-6.4c1.5-1.3,3.1-2.4,4.7-3.4c1.6-1,3.2-1.8,4.8-2.5   c1.6-0.6,3.3-1.1,5-1.3c1.7-0.2,3.3-0.2,5,0c1.7,0.2,3.4,0.7,5,1.3c1.7,0.6,3.3,1.4,4.9,2.2c3.2,1.7,6.5,3.9,9.6,6.2   c1.6,1.2,3.2,2.4,4.8,3.6s3.2,2.5,4.8,3.7c3.2,2.5,6.4,4.9,9.6,7.1c3.2,2.1,6.3,4,9.6,5.7c3.2,1.6,6.5,3,9.8,4.2   c3.3,1.2,6.7,2.1,10,2.8c3.3,0.7,6.7,1.3,10.1,1.7c6.7,0.9,13.3,1.3,20,1.5c6.6,0.2,13.1,0.3,19.7,0.2c6.6-0.1,13.4-0.3,20.3-1.1   c6.9-0.7,14-1.9,21.1-4.3c7.1-2.4,14.3-6,21.5-10.6c7.2-4.6,14.4-10.1,21.6-14.2c7.2-4.1,14.4-6.9,21.6-7.5   c7.2-0.6,14.4,1,21.6,3.5c7.2,2.5,14.4,5.9,21.6,9c7.2,3.1,14.4,5.9,21.6,8.1c7.2,2.2,14.4,3.9,21.6,5.1c7.2,1.2,14.4,1.9,21.6,2.2   c7.2,0.3,14.4,0.2,21.6-0.3c7.2-0.5,14.4-1.5,21.6-3c7.2-1.5,14.4-3.4,21.6-5.8c7.2-2.4,14.4-5.2,21.6-8c7.2-2.9,14.3-5.8,21.3-7.9   c7-2.1,13.9-3.3,20.5-3.4c6.6-0.1,12.8,0.9,18.7,1.1c5.9,0.3,11.6-0.1,17.4-1.8c5.8-1.7,11.9-4.9,17.7-6.4   c5.8-1.6,11.5-1.6,17.3,1.1c5.9,2.7,12,8.1,18.1,13c2.9,2.3,5.9,4.6,8.8,6.4c1.5,0.9,3,1.8,4.6,2.5c1.5,0.7,3.1,1.2,4.7,1.5   c1.5,0.3,2.9,0.4,4.4,0.3c0.7-0.1,1.5-0.2,2.2-0.3c0.7-0.2,1.5-0.3,2.2-0.6c1.4-0.5,2.9-1.1,4.3-1.9c1.4-0.8,2.8-1.7,4.2-2.6   c1.5-1.1,3-2.2,4.4-3.5c1.5-1.2,2.9-2.5,4.4-3.7c1.4-1.2,2.9-2.5,4.4-3.6c1.5-1.1,3-2.2,4.5-3.2c1.4-0.9,2.8-1.6,4.3-2.2   c1.4-0.6,2.9-1,4.4-1.2c1.5-0.2,3-0.2,4.4-0.1c1.5,0.2,2.9,0.5,4.4,1.1c1.6,0.6,3.3,1.5,4.8,2.5c1.6,1,3.2,2.1,4.7,3.3   c3,2.4,6.2,5.2,9.1,7.8c1.6,1.5,3.2,2.9,4.8,4.4c1.6,1.4,3.2,2.9,4.9,4.3c3.2,2.7,6.6,5.4,9.9,7.7c3.2,2.1,6.3,3.9,9.6,5.4   c3.3,1.5,6.5,2.6,9.9,3.6c4.1,1.2,8.1,2,12.2,2.5c0.1,0,0.1,0,0.2,0"/>
	<path class="st1" d="M0,211.7c0.2-0.1,0.5-0.1,0.7-0.2c1.1-0.3,2.1-0.4,3.2-0.4c1.1,0,2.1,0.1,3.2,0.3c1.1,0.2,2.1,0.6,3.2,1   c1.7,0.7,3.4,1.7,5.1,2.9c1.7,1.2,3.3,2.5,4.9,4c3.2,2.9,6.4,6.3,9.4,9.4c1.6,1.7,3.2,3.3,4.8,4.9c1.6,1.6,3.2,3.2,4.8,4.7   c3.2,3,6.6,5.9,10,8.3c3.1,2.2,6.2,3.9,9.5,5.4s6.4,2.5,9.7,3.3c3.2,0.8,6.4,1.4,9.7,1.8c3.2,0.4,6.5,0.7,9.7,0.9   c6.6,0.4,13.4,0.5,20.1,0.6c6.7,0.1,13.3,0,20-0.1c6.6-0.1,13.1-0.3,19.7-1c6.6-0.7,13.4-1.8,20.3-4.2c6.9-2.4,14-6.2,21.1-11.9   c7.1-5.7,14.3-13.2,21.5-17.4c7.2-4.2,14.4-5,21.6-2.1c7.2,2.9,14.4,9.5,21.6,14.9c7.2,5.4,14.4,9.5,21.6,11.8   c7.2,2.4,14.4,3.1,21.6,2.8s14.4-1.4,21.6-2.6c7.2-1.2,14.4-2.4,21.6-3.2c7.2-0.8,14.4-1.1,21.6-0.9c7.2,0.1,14.4,0.7,21.6,1.7   c7.2,0.9,14.4,2.1,21.6,3.4c7.2,1.3,14.4,2.5,21.6,3.4c7.2,0.9,14.4,1.4,21.6,1.1c7.2-0.3,14.3-1.3,21.3-3.5   c7-2.2,13.9-5.6,20.5-10.1s12.8-10,18.7-14.8c5.9-4.9,11.6-9,17.4-11.3c5.8-2.3,11.9-2.7,17.7-2.8c5.8-0.1,11.5,0,17.3-0.2   c5.9-0.2,12-0.7,18.1,1c1.6,0.4,3.1,1,4.6,1.7c1.5,0.7,3.1,1.5,4.6,2.3c3,1.7,6,3.8,8.9,5.9c1.4,1.1,2.9,2.2,4.3,3.3   c1.4,1.1,2.9,2.2,4.3,3.2c1.4,1,2.9,2.1,4.3,3c1.5,0.9,2.9,1.7,4.4,2.4c1.4,0.7,2.9,1.2,4.4,1.5c1.5,0.4,3,0.6,4.4,0.7   c1.5,0.1,3,0.1,4.5-0.1c1.5-0.2,3-0.5,4.4-1c1.5-0.5,3-1.1,4.5-1.9c1.5-0.7,2.9-1.6,4.4-2.4c1.4-0.9,2.9-1.8,4.3-2.8   c1.4-0.9,2.9-1.9,4.3-2.8c1.5-1,3-1.9,4.5-2.8c1.5-0.9,3.1-1.7,4.6-2.4c1.6-0.7,3.1-1.3,4.7-1.7c0.8-0.2,1.6-0.4,2.4-0.5   c0.8-0.1,1.6-0.2,2.4-0.2c1.7-0.1,3.4,0.1,5,0.4s3.3,0.8,5,1.5c3.3,1.3,6.5,3.2,9.6,5.4c3.3,2.4,6.6,5.2,9.8,8.1   c3.2,2.9,6.4,5.9,9.7,8.8c4,3.5,7.9,6.6,12,9.4c0.1,0.1,0.2,0.2,0.4,0.2"/>
	<path class="st1" d="M0,262.7c1.1-1.3,2.2-2.4,3.4-3.5c1.1-1,2.2-1.9,3.4-2.7s2.3-1.5,3.5-2c1.6-0.7,3.2-1.2,4.9-1.5   c1.6-0.3,3.3-0.3,4.9-0.1c0.8,0.1,1.6,0.2,2.5,0.4c0.8,0.2,1.6,0.5,2.4,0.8c1.6,0.6,3.2,1.4,4.8,2.3c1.7,1,3.4,2.1,5,3.3   s3.3,2.5,4.9,3.9c3.2,2.7,6.5,5.5,9.7,8.2c3.1,2.6,6.3,5,9.5,7.2c3.2,2.2,6.4,4.2,9.7,5.9c3.2,1.6,6.4,2.9,9.6,3.9   c3.2,1,6.5,1.8,9.7,2.5c3.3,0.6,6.7,1.1,10,1.5c3.3,0.4,6.7,0.6,10.1,0.8c6.7,0.4,13.3,0.5,20,0.5c6.6,0,13.1,0,19.7-0.3   c6.6-0.3,13.4-0.8,20.3-2.1s14-3.3,21.1-7.1c7.1-3.8,14.3-9.2,21.5-14.5c7.2-5.3,14.4-10.4,21.6-12.4c7.2-2.1,14.4-1.1,21.6,1.6   c7.2,2.7,14.4,7.1,21.6,11.1c7.2,4,14.4,7.6,21.6,10.3c7.2,2.7,14.4,4.5,21.6,5.8c7.2,1.3,14.4,2,21.6,2.5   c7.2,0.5,14.4,0.8,21.6,0.9c7.2,0.2,14.4,0.2,21.6,0c7.2-0.1,14.4-0.5,21.6-1.1c7.2-0.6,14.4-1.6,21.6-3c7.2-1.5,14.4-3.5,21.6-6.3   c7.2-2.8,14.3-6.4,21.3-10.3c7-3.8,13.9-7.9,20.5-10.8c6.6-2.9,12.8-4.7,18.7-5.6c5.9-0.9,11.6-1,17.4-1.6   c5.8-0.6,11.9-1.8,17.7-2.8c5.8-1,11.5-1.9,17.3-0.6c5.9,1.3,12,4.7,18.1,9.2c1.5,1.1,3,2.3,4.5,3.4c1.5,1.2,3,2.4,4.5,3.5   c1.5,1.2,3,2.3,4.5,3.3c1.5,1,3.1,2,4.6,2.8c1.4,0.7,2.8,1.3,4.3,1.8c1.4,0.4,2.9,0.7,4.4,0.8c1.5,0.1,2.9,0,4.4-0.2   c1.5-0.2,2.9-0.7,4.3-1.3c1.5-0.6,3-1.4,4.5-2.3c1.5-0.9,3-1.9,4.4-3c2.9-2.1,5.8-4.4,8.7-6.6c2.8-2,5.7-3.9,8.6-5.3   c1.5-0.7,2.9-1.3,4.4-1.7c0.7-0.2,1.5-0.4,2.2-0.5c0.7-0.1,1.5-0.2,2.2-0.2c0.8,0,1.6,0,2.4,0.1c0.8,0.1,1.6,0.2,2.4,0.4   c1.6,0.4,3.2,0.9,4.7,1.6c3.1,1.3,6.2,3.2,9.1,5.4c3.3,2.4,6.7,5.3,9.9,8.1c1.6,1.4,3.2,2.9,4.9,4.3c1.6,1.4,3.3,2.8,4.9,4.2   c3.2,2.6,6.3,4.9,9.6,7c3.3,2.1,6.5,3.8,9.9,5.4c4.1,1.9,8,3.2,12.2,4.2c0.1,0,0.1,0,0.2,0.1"/>
	<path class="st1" d="M0,190.7c1.4-0.1,2.8,0.1,4.2,0.5c1,0.3,2.1,0.7,3.1,1.2c1,0.5,2,1.1,3,1.7c1.7,1.2,3.4,2.6,5.1,4.1   c1.7,1.5,3.3,3.2,4.9,4.9c1.6,1.7,3.2,3.5,4.7,5.3c1.6,1.8,3.2,3.6,4.7,5.3c6.1,6.7,12.9,13,19.6,17.3c3.1,2,6.3,3.5,9.5,4.7   c3.2,1.2,6.4,2,9.7,2.7c3.2,0.6,6.4,1.1,9.7,1.4c3.2,0.3,6.5,0.5,9.7,0.6c6.6,0.3,13.4,0.3,20.1,0.4c6.7,0,13.3,0,20-0.2   c3.3-0.1,6.6-0.2,9.8-0.4c3.3-0.2,6.6-0.4,9.8-0.8c6.6-0.8,13.4-2.1,20.3-4.9c6.9-2.8,14-7.2,21.1-13.2c7.1-6,14.3-13.6,21.5-17   c7.2-3.4,14.4-2.5,21.6,1.6c7.2,4.1,14.4,11.4,21.6,16.4c7.2,5,14.4,7.7,21.6,8.2s14.4-1.1,21.6-3.6c7.2-2.5,14.4-6,21.6-8.9   c7.2-2.9,14.4-5.1,21.6-6.5c7.2-1.4,14.4-1.9,21.6-1.7c7.2,0.2,14.4,1.1,21.6,2.7c7.2,1.6,14.4,3.8,21.6,6.4   c7.2,2.6,14.4,5.7,21.6,8.5c7.2,2.8,14.4,5.2,21.6,6.7c7.2,1.5,14.3,2.1,21.3,1.5c7-0.6,13.9-2.3,20.5-5.5   c6.6-3.2,12.8-8,18.7-13.2c5.9-5.3,11.6-11.1,17.4-15.2c5.8-4.1,11.9-6.5,17.7-7.2c5.8-0.8,11.5,0,17.3-0.1c5.9-0.1,12-1,18.1-0.8   c1.5,0.1,3.1,0.2,4.6,0.4s3,0.5,4.6,0.9c3,0.8,6,2,9,3.7c3,1.7,5.9,3.8,8.7,6.1c1.4,1.1,2.9,2.3,4.3,3.4s2.9,2.3,4.3,3.4   c2.8,2.1,5.7,4.1,8.7,5.7c1.5,0.8,3,1.5,4.5,2c1.5,0.5,3,0.9,4.6,1.1c1.5,0.2,3,0.2,4.4,0c1.5-0.2,3-0.5,4.4-1   c1.5-0.5,2.9-1.1,4.3-1.8c1.4-0.7,2.9-1.5,4.3-2.4c1.5-1,3.1-2,4.6-3.1c1.5-1.1,3.1-2.1,4.6-3.2c1.5-1,3.1-2.1,4.7-3   c1.6-0.9,3.1-1.8,4.7-2.5c1.6-0.7,3.2-1.3,4.9-1.8c1.6-0.5,3.3-0.7,4.9-0.9c1.6-0.1,3.3-0.1,4.9,0.1c1.6,0.2,3.3,0.6,4.9,1.2   c1.7,0.6,3.4,1.4,5.1,2.4c1.7,1,3.3,2.1,4.9,3.4c3.2,2.5,6.4,5.5,9.5,8.4c2.1,2,4.1,4.1,6.1,6.1c2,2.1,4.1,4.1,6.1,6.2   c0.1,0.1,0.1,0.1,0.2,0.2"/>
	<path class="st1" d="M0,172c0.4,0,0.8,0.1,1.2,0.1c1,0.1,2.1,0.4,3.1,0.8c1,0.4,2.1,0.8,3.1,1.4c1,0.6,2,1.2,3,2   c1.7,1.3,3.4,2.8,5.1,4.4c1.6,1.6,3.3,3.4,4.9,5.2c1.6,1.8,3.2,3.7,4.8,5.5c1.6,1.9,3.2,3.7,4.8,5.5c6.1,6.8,12.8,12.9,19.6,17   c3.1,1.9,6.3,3.3,9.5,4.4c3.2,1.1,6.4,1.9,9.7,2.5c3.2,0.6,6.4,1,9.7,1.3c3.2,0.3,6.5,0.4,9.7,0.6c6.6,0.2,13.4,0.3,20.1,0.3   c6.7,0,13.3,0,20-0.2c3.3-0.1,6.6-0.2,9.8-0.4c3.3-0.2,6.6-0.5,9.8-0.9c6.6-0.9,13.4-2.3,20.3-5.3s14-7.6,21.1-13.7   c7.1-6.1,14.3-13.7,21.5-16.6c7.2-2.9,14.4-1.2,21.6,3.2c7.2,4.4,14.4,11.5,21.6,15.6c7.2,4.1,14.4,5.1,21.6,3.4   c7.2-1.7,14.4-6,21.6-10.4c7.2-4.5,14.4-9.1,21.6-12.1c7.2-3,14.4-4.4,21.6-5.2c7.2-0.8,14.4-0.8,21.6-0.7   c7.2,0.1,14.4,0.4,21.6,1.3c7.2,0.8,14.4,2.2,21.6,4.8c7.2,2.5,14.4,6.2,21.6,10.4c7.2,4.2,14.4,9,21.6,12.7   c7.2,3.7,14.3,6.5,21.3,7.8c7,1.3,13.9,1.3,20.5-0.4c6.6-1.6,12.8-4.8,18.7-9.4c5.9-4.6,11.6-10.7,17.4-16.1   c5.8-5.4,11.9-10.2,17.7-12.2c5.8-2,11.5-1.3,17.3-0.9c5.9,0.4,12,0.5,18.1,0c1.5-0.1,3-0.3,4.5-0.4c1.5-0.1,3-0.3,4.5-0.3   c1.5-0.1,3-0.1,4.5,0c1.5,0.1,3,0.3,4.5,0.6c1.5,0.4,3,0.9,4.5,1.5s2.9,1.4,4.4,2.3c2.9,1.7,5.7,3.9,8.5,6.2   c1.5,1.2,2.9,2.5,4.4,3.8c1.4,1.3,2.9,2.5,4.4,3.8c1.5,1.2,2.9,2.4,4.4,3.5c1.5,1.1,3,2.1,4.5,3c1.4,0.8,2.8,1.4,4.3,1.9   c1.5,0.5,2.9,0.8,4.4,1s2.9,0.1,4.4-0.1c1.5-0.2,2.9-0.5,4.4-1c1.6-0.5,3.2-1.3,4.8-2.1c1.6-0.8,3.1-1.8,4.7-2.8   c1.5-1,3.1-2,4.6-3.1c1.5-1.1,3.1-2.1,4.6-3.2c3.2-2.2,6.4-4.3,9.7-6c1.6-0.9,3.3-1.6,4.9-2.3c1.7-0.6,3.3-1.1,5-1.4   c1.7-0.3,3.3-0.3,5-0.1c0.8,0.1,1.7,0.2,2.5,0.4c0.8,0.2,1.7,0.4,2.5,0.7c1.6,0.6,3.3,1.3,4.8,2.3c1.6,0.9,3.2,2,4.7,3.2   c2.3,1.8,4.5,3.8,6.7,6.1c2,2.1,3.9,4.4,5.7,6.8"/>
	<path class="st1" d="M0,236c1.1-0.8,2.3-1.6,3.5-2.1c1.1-0.5,2.2-0.9,3.4-1.2c1.2-0.3,2.3-0.4,3.5-0.3c0.9,0,1.7,0.1,2.5,0.3   s1.7,0.4,2.5,0.6c1.7,0.5,3.3,1.3,4.9,2.3c1.6,0.9,3.2,2,4.8,3.2c1.6,1.2,3.1,2.5,4.7,3.9c1.6,1.4,3.3,3,4.9,4.5   c1.6,1.5,3.2,3.1,4.9,4.6c3.2,3,6.6,6.1,9.9,8.7c3.1,2.5,6.2,4.6,9.4,6.3c3.2,1.8,6.5,3.2,9.8,4.4c3.2,1.1,6.4,2,9.6,2.6   c3.2,0.6,6.5,1.1,9.7,1.4c6.6,0.7,13.4,1,20.1,1.1c6.7,0.1,13.3,0.2,20,0.1c6.6-0.1,13.1-0.2,19.7-0.7c6.6-0.5,13.4-1.3,20.3-3.2   s14-4.9,21.1-9.8c7.1-4.9,14.3-11.8,21.5-16.8c7.2-5,14.4-8.2,21.6-7.5c7.2,0.7,14.4,5.2,21.6,9.9c7.2,4.7,14.4,9.7,21.6,13.4   s14.4,6,21.6,7.4c7.2,1.4,14.4,1.9,21.6,2.1c7.2,0.2,14.4,0,21.6-0.1c7.2-0.1,14.4-0.1,21.6,0c7.2,0.1,14.4,0.3,21.6,0.6   c7.2,0.3,14.4,0.6,21.6,0.8c7.2,0.2,14.4,0.2,21.6-0.2c7.2-0.4,14.4-1.2,21.6-2.9c7.2-1.7,14.3-4.2,21.3-7.8   c7-3.6,13.9-8.2,20.5-12.8c6.6-4.6,12.8-9,18.7-12.2c5.9-3.1,11.6-4.9,17.4-5.7c5.8-0.8,11.9-0.7,17.7-1c5.8-0.3,11.5-1,17.3-0.8   c5.9,0.2,12,1.4,18.1,4.7c1.5,0.8,3.1,1.8,4.6,2.8c1.5,1,3,2.1,4.5,3.3c1.5,1.1,3,2.3,4.5,3.4c1.5,1.1,3,2.3,4.5,3.4   c2.8,2,5.6,3.8,8.5,5.1c1.4,0.7,2.9,1.2,4.4,1.6c0.7,0.2,1.5,0.3,2.2,0.4c0.7,0.1,1.5,0.2,2.2,0.2c0.8,0,1.5,0,2.3-0.1   c0.8-0.1,1.5-0.2,2.3-0.4c1.5-0.3,3-0.8,4.5-1.4c2.9-1.2,5.9-2.8,8.7-4.6c1.4-0.9,2.9-1.9,4.3-2.9s2.9-2,4.3-2.9   c1.4-0.9,2.9-1.9,4.4-2.7c1.5-0.8,2.9-1.6,4.4-2.2c6.2-2.5,12.4-2.7,18.6-0.2c1.7,0.7,3.4,1.6,5.1,2.6c1.7,1,3.3,2.1,4.9,3.3   c3.2,2.4,6.5,5.1,9.6,7.8c1.6,1.4,3.2,2.7,4.8,4.1c1.6,1.4,3.2,2.7,4.8,4c3.3,2.6,6.5,5.1,9.8,7.3c4,2.7,7.9,4.8,12.1,6.6   c0.1,0,0.2,0.1,0.3,0.1"/>
	<path class="st1" d="M0,339.8c3.5-2.4,6.8-5.1,10.3-8.1c3.2-2.8,6.4-5.7,9.7-8.6c3.2-2.9,6.5-5.6,9.8-8.1c3.1-2.3,6.4-4.4,9.6-5.9   c1.6-0.8,3.3-1.4,5-2c1.7-0.5,3.3-0.9,5-1.1c1.6-0.2,3.2-0.2,4.9-0.1c1.6,0.1,3.2,0.4,4.8,0.8c1.6,0.4,3.2,0.9,4.8,1.5   c1.6,0.6,3.2,1.4,4.7,2.2c3.3,1.7,6.5,3.8,9.7,5.9c1.6,1.1,3.2,2.2,4.8,3.3c1.6,1.1,3.2,2.2,4.8,3.3c3.3,2.3,6.6,4.5,10,6.5   c3.3,2.1,6.7,4,10.1,5.7c6.6,3.3,13.2,5.7,20,7.4c6.6,1.7,13.1,2.6,19.7,3.3c6.6,0.6,13.4,1,20.3,1.1c6.9,0.1,14,0.1,21.1-0.3   c7.1-0.4,14.3-1.1,21.5-2.6c7.2-1.4,14.4-3.6,21.6-6.7c7.2-3.1,14.4-7.1,21.6-11.1c7.2-4,14.4-8.1,21.6-11.3   c7.2-3.1,14.4-5.3,21.6-6.7s14.4-1.7,21.6-1.7c7.2,0,14.4,0.4,21.6,0.8c7.2,0.4,14.4,0.8,21.6,1c7.2,0.2,14.4,0.2,21.6,0   c7.2-0.2,14.4-0.6,21.6-0.8c7.2-0.2,14.4-0.3,21.6,0.2c7.2,0.5,14.4,1.6,21.6,3.4c7.2,1.8,14.3,4.4,21.3,7.2   c7,2.7,13.9,5.6,20.5,6.8s12.8,0.7,18.7-2.1c5.9-2.8,11.6-7.8,17.4-12.1c5.8-4.3,11.9-7.7,17.7-7.6c5.8,0.1,11.5,3.7,17.3,8.6   c5.9,4.9,12,11.2,18.1,14.4c6.1,3.2,12.2,3.5,18.1,0.8c1.5-0.7,3-1.6,4.5-2.6s2.9-2.1,4.3-3.3c1.4-1.2,2.9-2.4,4.3-3.7   c1.4-1.3,2.8-2.5,4.2-3.7c2.8-2.4,5.7-4.7,8.6-6.4c1.5-0.9,3-1.7,4.5-2.2c0.8-0.3,1.5-0.5,2.3-0.7c0.8-0.2,1.5-0.3,2.3-0.4   c0.8,0,1.5,0,2.3,0c0.8,0.1,1.5,0.2,2.3,0.4c1.5,0.4,3,1,4.5,1.8c1.5,0.8,2.9,1.8,4.3,2.8c1.4,1.1,2.8,2.3,4.2,3.5   c3.1,2.8,6.3,6.2,9.3,9.3c3.1,3.1,6.2,6.3,9.4,9c6.3,5.3,12.9,9.1,19.6,11.6c3.2,1.2,6.4,2.1,9.7,2.7c3.3,0.7,6.5,1.1,9.8,1.5   c4.1,0.4,8.1,0.7,12.3,0.9c0,0,0.1,0,0.1,0"/>
	<path class="st1" d="M0,400.6c3.4-0.2,6.9-0.6,10.3-1c3.3-0.4,6.5-0.9,9.7-1.6c3.3-0.7,6.5-1.4,9.7-2.4c6.6-2,13.2-4.8,19.6-8.2   c3.2-1.7,6.4-3.6,9.6-5.5c3.2-1.9,6.4-3.9,9.6-5.8c3.2-1.9,6.4-3.8,9.6-5.5c3.2-1.7,6.5-3.3,9.7-4.6c3.3-1.3,6.6-2.4,10-3.2   c3.3-0.8,6.7-1.3,10.1-1.5c3.3-0.2,6.7,0,10,0.4c3.3,0.4,6.7,1.1,10,2c3.3,0.9,6.6,2,9.9,3.2c3.3,1.2,6.6,2.5,9.8,3.8   c6.6,2.7,13.4,5.6,20.3,8.3s14,5.3,21.1,7.5c7.1,2.2,14.3,4.1,21.5,5.6c7.2,1.5,14.4,2.7,21.6,3.6c7.2,0.9,14.4,1.5,21.6,1.8   c7.2,0.3,14.4,0.4,21.6,0.3c7.2-0.1,14.4-0.5,21.6-0.9c7.2-0.4,14.4-1,21.6-1.5c7.2-0.5,14.4-1,21.6-1.4c7.2-0.4,14.4-0.6,21.6-0.7   c7.2-0.1,14.4,0,21.6,0.3c7.2,0.3,14.4,0.7,21.6,1.3c7.2,0.5,14.4,1.2,21.6,1.8c7.2,0.6,14.4,1.2,21.6,1.4   c7.2,0.3,14.3,0.3,21.3-0.6c7-0.9,13.9-2.6,20.5-6.2c6.6-3.7,12.8-9.3,18.7-15.4c5.9-6.1,11.6-12.8,17.4-16.1   c5.8-3.3,11.9-3.2,17.7,0.1c5.8,3.2,11.5,9.5,17.3,14.6c5.9,5.1,12,9,18.1,9.2c0.8,0,1.6,0,2.3-0.1c0.8-0.1,1.6-0.2,2.3-0.4   c1.5-0.4,3.1-0.9,4.6-1.7c3-1.4,6-3.5,8.8-5.9c1.4-1.2,2.9-2.5,4.3-3.8c1.4-1.3,2.8-2.7,4.3-4c1.4-1.3,2.9-2.6,4.3-3.8   c1.5-1.2,2.9-2.3,4.4-3.2c5.8-3.4,11.8-4,17.7-0.9c1.6,0.8,3.1,1.8,4.6,3c1.5,1.2,3,2.5,4.4,3.9c1.4,1.4,2.9,2.9,4.3,4.3   c1.4,1.5,2.8,3,4.2,4.4c3,3.1,6,6.1,9.1,8.8c3.1,2.7,6.3,5.1,9.5,7.1c3.2,1.9,6.4,3.4,9.7,4.5c3.3,1.1,6.6,2,9.9,2.6   c3.3,0.6,6.5,1.1,9.7,1.4c3.3,0.3,6.5,0.5,9.8,0.6c4,0.2,8.2,0.3,12.4,0.3"/>
	<path class="st1" d="M0,381.8c3.5-0.6,6.8-1.4,10.3-2.4c3.3-1,6.5-2.1,9.8-3.5c3.3-1.4,6.4-3,9.6-4.8c3.3-1.9,6.6-4.1,9.9-6.3   c3.3-2.2,6.5-4.6,9.8-6.9c3.1-2.2,6.3-4.5,9.5-6.5c3.2-2.1,6.4-4,9.7-5.5c3.2-1.5,6.4-2.6,9.6-3.3c1.6-0.4,3.2-0.6,4.9-0.8   c1.6-0.2,3.3-0.2,4.9-0.2c1.7,0.1,3.4,0.2,5.1,0.5c1.7,0.3,3.4,0.6,5,1.1c3.3,0.9,6.7,2.1,10,3.5c3.4,1.4,6.7,3.1,10,4.8   c3.3,1.7,6.6,3.6,9.9,5.4c3.3,1.8,6.5,3.5,9.8,5.2s6.6,3.2,9.9,4.6c6.6,2.9,13.4,5.2,20.3,7.1c6.9,1.9,14,3.3,21.1,4.4   c7.1,1.1,14.3,1.8,21.5,2.3c7.2,0.5,14.4,0.7,21.6,0.6c7.2-0.1,14.4-0.5,21.6-1.2c7.2-0.7,14.4-1.8,21.6-3.1   c7.2-1.3,14.4-2.9,21.6-4.4c7.2-1.6,14.4-3.2,21.6-4.6c7.2-1.4,14.4-2.6,21.6-3.5c7.2-0.9,14.4-1.5,21.6-1.7   c7.2-0.2,14.4,0,21.6,0.5c7.2,0.6,14.4,1.5,21.6,2.8c7.2,1.2,14.4,2.8,21.6,4.3c7.2,1.6,14.4,3.1,21.6,4.4   c7.2,1.3,14.3,2.2,21.3,2.2c7,0,13.9-0.9,20.5-3.9s12.8-8,18.7-13.8c5.9-5.8,11.6-12.5,17.4-16.1c5.8-3.6,11.9-4.1,17.7-1.3   c5.8,2.8,11.5,8.8,17.3,14c5.9,5.2,12,9.6,18.1,10.4c1.5,0.2,3.1,0.2,4.6-0.1c1.5-0.2,3.1-0.7,4.6-1.3c3-1.2,6-3,8.8-5.3   c1.5-1.2,2.9-2.4,4.3-3.7c1.4-1.3,2.8-2.6,4.3-4c1.4-1.3,2.9-2.6,4.3-3.9c1.4-1.2,2.9-2.4,4.4-3.4c1.4-0.9,2.9-1.7,4.3-2.4   c1.5-0.6,2.9-1.1,4.4-1.4c1.5-0.3,3-0.4,4.5-0.2c0.7,0.1,1.5,0.2,2.2,0.4s1.5,0.4,2.2,0.7c1.6,0.6,3.1,1.5,4.6,2.6   c1.5,1,3,2.3,4.4,3.6c2.8,2.5,5.7,5.6,8.5,8.4c1.5,1.6,3,3.1,4.5,4.6c1.5,1.5,3,3,4.6,4.4c3.1,2.8,6.3,5.5,9.5,7.6   c3.2,2.1,6.4,3.7,9.7,5c3.3,1.3,6.6,2.2,9.9,3c3.2,0.7,6.5,1.2,9.7,1.6c3.3,0.4,6.5,0.6,9.8,0.8c4.1,0.2,8.2,0.3,12.3,0.4   c0.1,0,0.1,0,0.1,0"/>
	<path class="st1" d="M0,482.8c1.4,0.3,2.7,0.5,4.1,0.7c1,0.1,2.1,0.2,3.1,0.3c1,0.1,2.1,0.1,3.1,0.2c3.2,0.1,6.5,0.3,9.7,0.6   c3.3,0.2,6.5,0.6,9.7,1c6.5,0.9,13.2,2.2,19.6,3.8c6.5,1.6,12.8,3.4,19.2,5.3c6.5,1.9,12.9,3.9,19.3,5.9c6.7,2.1,13.4,4.1,20.1,6.1   c6.6,2,13.3,3.9,20,5.7c6.6,1.8,13.1,3.3,19.7,4.7c6.6,1.4,13.4,2.5,20.3,3.4c6.9,0.9,14,1.6,21.1,2c7.1,0.5,14.3,0.7,21.5,0.7   c7.2,0,14.4-0.2,21.6-0.7c7.2-0.5,14.4-1.2,21.6-2.4c7.2-1.2,14.4-2.7,21.6-4.7s14.4-4.5,21.6-7.3s14.4-6,21.6-9   c7.2-3,14.4-5.9,21.6-8.2c7.2-2.2,14.4-3.8,21.6-4.3c7.2-0.4,14.4,0.2,21.6,2c7.2,1.8,14.4,4.7,21.6,8c7.2,3.3,14.4,7.1,21.6,10.6   c7.2,3.5,14.4,6.8,21.6,9.3c7.2,2.6,14.3,4.4,21.3,5.5c7,1.1,13.9,1.6,20.5,1.1c6.6-0.4,12.8-1.7,18.7-4.5   c5.9-2.8,11.6-7.2,17.4-13.1c5.8-5.9,11.9-13.3,17.7-18.1c5.8-4.8,11.5-7,17.3-5.8c5.9,1.2,12,5.9,18.1,10.3c2.9,2.1,5.9,4.3,8.9,6   c1.5,0.9,3,1.6,4.6,2.3c0.8,0.3,1.5,0.6,2.3,0.8c0.8,0.2,1.6,0.4,2.3,0.5c1.5,0.2,3,0.2,4.4,0c1.5-0.2,2.9-0.6,4.4-1.2   c1.4-0.6,2.9-1.3,4.3-2.1c1.4-0.8,2.8-1.7,4.2-2.7c0.7-0.5,1.5-1.1,2.2-1.6c0.7-0.6,1.5-1.1,2.2-1.7c1.5-1.1,2.9-2.3,4.4-3.4   c1.5-1.1,2.9-2.2,4.4-3.1c1.5-0.9,3-1.8,4.5-2.4c0.7-0.3,1.5-0.5,2.2-0.7c0.7-0.2,1.5-0.3,2.2-0.4c1.5-0.2,3-0.1,4.4,0.1   c1.5,0.3,2.9,0.7,4.4,1.4c1.4,0.6,2.9,1.4,4.3,2.4c1.6,1.1,3.2,2.4,4.8,3.8c0.8,0.7,1.6,1.4,2.3,2.1c0.8,0.7,1.5,1.5,2.3,2.2   c1.5,1.5,3.1,3,4.6,4.6c1.5,1.5,3.1,3,4.6,4.5c6.2,5.8,12.9,11,19.6,14.5c3.2,1.7,6.4,2.9,9.7,4c3.3,1,6.5,1.7,9.8,2.3   c4.1,0.7,8.1,1.1,12.3,1.4c0.1,0,0.1,0,0.2,0"/>
	<path class="st1" d="M0,552.7c1.3-0.7,2.7-1.4,4-2.1c2.1-1,4.1-1.8,6.3-2.7c6.5-2.7,13-5.2,19.4-7.7c6.5-2.5,13.1-5,19.6-7.4   c6.4-2.3,12.8-4.4,19.2-6.2c6.5-1.8,12.8-3.3,19.3-4.4c6.6-1.1,13.4-1.8,20.1-2c6.7-0.2,13.3,0.1,20,0.9c3.3,0.4,6.6,0.9,9.9,1.6   s6.6,1.4,9.8,2.2c6.6,1.7,13.4,3.7,20.3,6c6.9,2.2,14,4.6,21.1,7c7.1,2.3,14.3,4.6,21.5,6.8c7.2,2.1,14.4,4.1,21.6,5.8   c7.2,1.7,14.4,3.2,21.6,4.3c7.2,1.2,14.4,2,21.6,2.5s14.4,0.8,21.6,0.7c7.2-0.1,14.4-0.5,21.6-1.4c7.2-0.9,14.4-2.3,21.6-4.4   c7.2-2,14.4-4.8,21.6-8c7.2-3.2,14.4-7,21.6-10.6c7.2-3.5,14.4-6.8,21.6-8.9c7.2-2.1,14.4-2.9,21.6-2.1c7.2,0.9,14.4,3.4,21.6,6.9   c7.2,3.5,14.3,7.9,21.3,11.9c7,4,13.9,7.6,20.5,10c6.6,2.5,12.8,3.8,18.7,3.9c5.9,0,11.6-1.3,17.4-4.6c5.8-3.3,11.9-8.5,17.7-14   c5.8-5.5,11.5-11.1,17.3-14.6c5.9-3.4,12-4.6,18.1-3c1.5,0.4,3.1,1,4.6,1.7c1.5,0.7,3,1.5,4.5,2.4c1.5,0.9,3,1.8,4.5,2.7   c1.5,0.9,3,1.8,4.5,2.7c1.4,0.8,2.8,1.5,4.2,2.2c1.4,0.7,2.9,1.2,4.3,1.7c1.4,0.4,2.9,0.8,4.4,0.9c1.5,0.1,2.9,0.1,4.4-0.1   c1.5-0.2,3-0.7,4.5-1.2c1.5-0.6,3-1.3,4.4-2s2.9-1.6,4.4-2.5c1.5-0.9,2.9-1.7,4.4-2.6c1.4-0.8,2.8-1.7,4.3-2.4   c1.4-0.8,2.9-1.5,4.3-2.1c1.5-0.6,2.9-1.1,4.4-1.4c0.7-0.2,1.5-0.3,2.2-0.4c0.7-0.1,1.5-0.1,2.2-0.1c0.8,0,1.6,0.1,2.4,0.2   c0.8,0.1,1.6,0.3,2.4,0.5c1.6,0.5,3.2,1.1,4.7,1.9c3.1,1.5,6.2,3.6,9.1,6c3.3,2.6,6.6,5.7,9.8,8.7c3.2,3,6.6,6.1,9.8,8.8   c3.1,2.6,6.3,4.8,9.6,6.8c3.3,1.9,6.6,3.5,9.9,4.9c2,0.8,4,1.5,6.1,2.1c2,0.6,4.1,1.1,6.1,1.5c0.1,0,0.1,0,0.2,0"/>
	<path class="st1" d="M0,576.1c1.4-0.3,2.8-0.5,4.2-0.8c2-0.4,4.1-0.7,6.1-1.1c6.5-1.2,12.9-2.4,19.4-3.8c6.5-1.4,13.2-3,19.6-4.7   c6.4-1.7,12.8-3.5,19.2-5.5c3.2-1,6.5-2,9.7-3c3.2-1,6.4-2,9.7-3c6.7-2.1,13.4-4.2,20.1-6c6.6-1.8,13.3-3.5,20-4.8   c6.6-1.3,13.1-2.2,19.7-2.7c6.6-0.5,13.4-0.6,20.3-0.2s14,1.3,21.1,2.7c7.1,1.3,14.3,3.1,21.5,5.2c7.2,2,14.4,4.4,21.6,6.8   c7.2,2.4,14.4,4.9,21.6,7.2c7.2,2.3,14.4,4.4,21.6,6.3c7.2,1.8,14.4,3.3,21.6,4.5c7.2,1.1,14.4,1.9,21.6,2.3   c7.2,0.4,14.4,0.3,21.6-0.3c7.2-0.6,14.4-1.7,21.6-3.5c7.2-1.8,14.4-4.2,21.6-7.3c7.2-3.1,14.4-6.7,21.6-10.3   c7.2-3.6,14.4-7.1,21.6-9.3c7.2-2.3,14.4-3.3,21.6-2.6c7.2,0.7,14.3,3.2,21.3,6.6c7,3.4,13.9,7.8,20.5,11.5   c6.6,3.7,12.8,6.9,18.7,8.8c5.9,1.9,11.6,2.5,17.4,1.3c5.8-1.2,11.9-4.2,17.7-8.5c5.8-4.3,11.5-9.8,17.3-14.6   c5.9-4.8,12-8.9,18.1-10c1.5-0.3,3-0.3,4.6-0.3c1.5,0.1,3,0.3,4.6,0.6c1.5,0.3,3,0.8,4.5,1.4c1.5,0.5,3,1.2,4.5,1.9   c1.4,0.7,2.9,1.4,4.3,2.1c1.4,0.7,2.9,1.5,4.3,2.1c1.4,0.7,2.9,1.3,4.3,1.9c1.5,0.6,2.9,1,4.4,1.4c2.9,0.7,5.9,0.7,8.9,0.4   c1.5-0.2,3-0.5,4.4-0.8c1.5-0.4,2.9-0.9,4.4-1.4c1.5-0.6,2.9-1.2,4.4-1.9c1.4-0.7,2.9-1.4,4.3-2.1c1.4-0.7,2.9-1.4,4.4-2   c1.5-0.6,2.9-1.1,4.4-1.5c1.6-0.4,3.1-0.7,4.7-0.8c1.6-0.1,3.1-0.1,4.7,0.1c1.6,0.2,3.1,0.5,4.7,1c1.5,0.5,3.1,1.1,4.6,1.9   c1.7,0.9,3.4,2,5.1,3.2c1.7,1.2,3.3,2.5,4.9,3.9c1.6,1.4,3.2,2.8,4.8,4.2c1.6,1.4,3.2,2.9,4.8,4.3c3.2,2.8,6.4,5.5,9.6,8   c3.3,2.5,6.5,4.7,9.9,6.6c2,1.1,4,2.2,6,3.1c2,0.9,4.1,1.7,6.1,2.3c0.1,0,0.2,0.1,0.3,0.1"/>
	<path class="st1" d="M0,520.2c1.3-0.9,2.6-1.7,3.9-2.5c2.2-1.3,4.2-2.2,6.4-3.2c3.2-1.5,6.4-2.8,9.7-4c3.3-1.2,6.5-2.3,9.8-3.2   c6.4-1.9,13.1-3.4,19.6-4.3c6.4-0.9,12.8-1.3,19.2-1.2c3.2,0.1,6.5,0.2,9.7,0.6c3.2,0.3,6.4,0.7,9.7,1.3c6.7,1.1,13.5,2.7,20.1,4.6   c6.7,1.9,13.3,4.1,20,6.4c6.6,2.3,13.1,4.7,19.7,7c6.6,2.3,13.4,4.6,20.3,6.7c6.9,2.1,14,3.9,21.1,5.5c7.1,1.5,14.3,2.8,21.5,3.8   c7.2,1,14.4,1.8,21.6,2.3c7.2,0.5,14.4,0.8,21.6,0.8c7.2,0,14.4-0.3,21.6-0.9c7.2-0.6,14.4-1.6,21.6-3c7.2-1.4,14.4-3.2,21.6-5.6   c7.2-2.3,14.4-5.2,21.6-8.4c7.2-3.2,14.4-6.7,21.6-9.9c7.2-3.2,14.4-6,21.6-7.6c7.2-1.6,14.4-2,21.6-0.8c7.2,1.1,14.4,3.7,21.6,7.2   c7.2,3.5,14.4,7.8,21.6,11.8c7.2,4,14.3,7.6,21.3,10.3c7,2.7,13.9,4.5,20.5,5.3c6.6,0.8,12.8,0.6,18.7-0.9   c5.9-1.6,11.6-4.5,17.4-9.4c5.8-4.9,11.9-11.7,17.7-17.4c5.8-5.6,11.5-10.1,17.3-11.2c5.9-1.2,12,0.9,18.1,4.5   c1.5,0.9,3,1.9,4.5,2.9c1.5,1,3,2.1,4.5,3.1c1.5,1,3,2,4.5,3c1.5,0.9,3.1,1.8,4.6,2.4c1.4,0.6,2.9,1.1,4.3,1.4   c1.5,0.3,2.9,0.4,4.4,0.4c0.7,0,1.5-0.1,2.2-0.2c0.7-0.1,1.5-0.3,2.2-0.5c1.4-0.4,2.9-1,4.3-1.7c1.5-0.8,3-1.7,4.5-2.7   c1.5-1,2.9-2.1,4.4-3.2c1.5-1.1,2.9-2.2,4.4-3.2c1.5-1,2.9-2.1,4.4-2.9c1.4-0.8,2.8-1.5,4.3-2.1c1.4-0.6,2.9-1,4.4-1.2   c1.5-0.2,2.9-0.3,4.4-0.1c0.7,0.1,1.5,0.2,2.2,0.4c0.7,0.2,1.5,0.4,2.2,0.7c1.6,0.6,3.3,1.5,4.8,2.5c1.6,1,3.2,2.2,4.7,3.4   c3,2.4,6.1,5.3,9.1,8.1c1.6,1.5,3.2,3,4.8,4.5c1.6,1.5,3.2,3,4.9,4.4c3.2,2.8,6.6,5.6,9.9,7.9c3.2,2.2,6.3,3.9,9.6,5.3   c3.3,1.4,6.5,2.5,9.9,3.4c4.1,1.1,8.1,1.8,12.2,2.3c0.1,0,0.1,0,0.2,0"/>
	<path class="st1" d="M0,657.6c1.4-0.4,2.7-0.7,4.1-1c2.1-0.5,4.1-0.9,6.2-1.3c6.5-1.3,13-2.5,19.4-3.6c6.5-1.1,13.1-2.2,19.6-3.1   c6.4-0.9,12.8-1.6,19.2-2.1c6.5-0.5,12.9-0.7,19.3-0.5c6.7,0.2,13.4,0.8,20.1,1.7c6.7,1,13.3,2.4,20,4.1c6.6,1.7,13.1,3.7,19.7,5.9   c6.6,2.2,13.4,4.6,20.3,7.1c6.9,2.5,14,5.1,21.1,7.4c7.1,2.3,14.3,4.4,21.5,6.1c7.2,1.7,14.4,2.9,21.6,3.7   c7.2,0.8,14.4,1.1,21.6,0.8c7.2-0.2,14.4-0.9,21.6-2.3c7.2-1.4,14.4-3.4,21.6-6.1s14.4-6.2,21.6-9.9c7.2-3.7,14.4-7.6,21.6-10.6   c7.2-3,14.4-5,21.6-5.1c7.2-0.2,14.4,1.5,21.6,4.5c7.2,3,14.4,7.2,21.6,11.3c7.2,4.1,14.4,8.1,21.6,11c7.2,2.9,14.4,4.9,21.6,5.7   c7.2,0.8,14.3,0.6,21.3-1c7-1.6,13.9-4.6,20.5-8.9c6.6-4.4,12.8-10.1,18.7-14.9c5.9-4.8,11.6-8.7,17.4-9.5   c5.8-0.8,11.9,1.3,17.7,5.1c5.8,3.7,11.5,9,17.3,13.2c5.9,4.2,12,7.3,18.1,7.9c1.5,0.1,3.1,0.1,4.6,0c1.5-0.2,3.1-0.5,4.6-0.9   c3-0.9,6-2.3,8.9-4.2c3-1.9,5.9-4.3,8.8-6.8c2.9-2.5,5.7-5.2,8.6-7.7c2.8-2.5,5.7-5,8.6-7c1.5-1,3-2,4.5-2.8c1.5-0.8,3-1.5,4.6-2   c1.4-0.4,2.9-0.7,4.4-0.8s2.9,0,4.4,0.2c1.5,0.2,2.9,0.5,4.4,1c1.4,0.4,2.9,1,4.3,1.6c1.5,0.6,3.1,1.4,4.6,2.1   c1.5,0.7,3.1,1.4,4.6,2.1c1.5,0.7,3.1,1.3,4.7,1.8c1.6,0.5,3.1,0.9,4.7,1.1c1.6,0.2,3.3,0.2,4.9,0.1c1.6-0.1,3.3-0.4,4.9-0.7   c1.6-0.3,3.3-0.8,4.9-1.2c1.6-0.5,3.2-1,4.9-1.5c1.6-0.5,3.2-1,4.8-1.4c1.6-0.4,3.2-0.8,4.9-1c1.6-0.2,3.3-0.3,4.9-0.2   c0.8,0.1,1.6,0.2,2.5,0.3c0.8,0.2,1.6,0.4,2.4,0.7c1.2,0.4,2.4,1,3.6,1.6c1.2,0.7,2.3,1.5,3.4,2.4c1.9,1.6,3.7,3.4,5.4,5.5"/>
	<path class="st1" d="M0,361.6c3.5-1.3,6.8-2.9,10.3-4.9c3.3-1.9,6.6-4,9.8-6.3c3.2-2.3,6.4-4.8,9.6-7.3c1.6-1.3,3.2-2.6,4.9-3.9   c1.6-1.3,3.2-2.6,4.9-3.8c3.2-2.5,6.6-4.8,9.9-6.8c3.1-1.8,6.3-3.3,9.5-4.3c1.6-0.5,3.2-0.9,4.8-1.1c1.6-0.3,3.2-0.4,4.9-0.4   c1.6,0,3.3,0.2,4.9,0.5c1.6,0.3,3.3,0.7,4.9,1.2c3.2,1,6.4,2.4,9.6,4c3.4,1.7,6.8,3.8,10.1,5.9c3.3,2.1,6.7,4.3,10,6.4   c6.7,4.3,13.4,8.2,20,11.3c6.6,3.1,13.1,5.3,19.7,7c6.6,1.7,13.4,2.7,20.3,3.5c6.9,0.8,14,1.2,21.1,1.4c7.1,0.2,14.3,0.2,21.5-0.2   c7.2-0.4,14.4-1.1,21.6-2.3c7.2-1.3,14.4-3.1,21.6-5.5c7.2-2.4,14.4-5.3,21.6-8.2s14.4-5.9,21.6-8.4c7.2-2.5,14.4-4.7,21.6-6.4   c7.2-1.7,14.4-2.9,21.6-3.7c7.2-0.8,14.4-1.3,21.6-1.5c7.2-0.2,14.4,0,21.6,0.5c7.2,0.5,14.4,1.4,21.6,2.7c7.2,1.3,14.4,3,21.6,5.1   c7.2,2.1,14.4,4.6,21.6,7.1c7.2,2.5,14.3,5.1,21.3,6.8c7,1.7,13.9,2.6,20.5,1.4c6.6-1.2,12.8-4.5,18.7-9.4   c5.9-4.8,11.6-11.2,17.4-15.3c5.8-4.1,11.9-6,17.7-4.3c5.8,1.6,11.5,6.8,17.3,12c5.9,5.2,12,10.5,18.1,12.4   c6.1,1.9,12.2,0.3,18.1-3.6c5.9-3.9,11.5-10.2,17.3-14.7c1.4-1.1,2.8-2.1,4.3-2.9c1.4-0.9,2.9-1.6,4.4-2.1c0.7-0.3,1.5-0.5,2.2-0.7   c0.7-0.2,1.5-0.3,2.3-0.4c1.5-0.2,3-0.1,4.5,0.2c0.8,0.2,1.5,0.4,2.3,0.7c0.8,0.3,1.5,0.6,2.3,1c1.5,0.8,3,1.8,4.4,2.9   c2.9,2.2,5.7,4.9,8.4,7.7c3.1,3.1,6.1,6.3,9.2,9.3c3.1,3,6.2,5.9,9.4,8.3c3.2,2.4,6.4,4.3,9.7,5.8c3.3,1.5,6.6,2.7,10,3.6   c3.2,0.9,6.5,1.5,9.7,2c3.3,0.5,6.5,0.8,9.8,1c4.1,0.3,8.1,0.5,12.3,0.6c0.1,0,0.1,0,0.1,0"/>
	<path class="st1" d="M0,594.8c1.4-0.2,2.8-0.3,4.2-0.4c2-0.2,4.1-0.3,6.1-0.4c6.5-0.4,13-0.7,19.4-1.1c6.5-0.4,13.1-0.9,19.6-1.6   c6.4-0.7,12.8-1.5,19.2-2.4c6.5-1,12.9-2.1,19.3-3.3c6.7-1.3,13.4-2.8,20.1-4.4c6.7-1.6,13.3-3.4,20-5.2c6.6-1.8,13.1-3.8,19.7-5.6   c6.6-1.9,13.4-3.7,20.3-5.3c6.9-1.6,14-2.9,21.1-3.8c7.1-0.9,14.3-1.5,21.5-1.5c7.2,0,14.4,0.5,21.6,1.8c7.2,1.2,14.4,3.1,21.6,5.4   c7.2,2.3,14.4,5,21.6,7.7c7.2,2.7,14.4,5.4,21.6,7.8c7.2,2.4,14.4,4.6,21.6,6.3c7.2,1.7,14.4,2.9,21.6,3.7c7.2,0.7,14.4,1,21.6,0.7   c7.2-0.3,14.4-1.2,21.6-2.8c7.2-1.6,14.4-3.8,21.6-6.7c7.2-2.9,14.4-6.5,21.6-10.1c7.2-3.6,14.4-7.2,21.6-9.6   c7.2-2.4,14.3-3.5,21.3-2.8c7,0.8,13.9,3.4,20.5,6.8s12.8,7.6,18.7,11c5.9,3.4,11.6,6,17.4,7.1c5.8,1.1,11.9,0.6,17.7-1.8   c5.8-2.3,11.5-6.5,17.3-11.4c5.9-5,12-10.8,18.1-14.3c1.5-0.8,2.9-1.6,4.4-2.2c1.5-0.6,3-1.1,4.5-1.4c3-0.7,6.1-0.8,9.1-0.3   c1.5,0.2,2.9,0.6,4.4,1.1c1.5,0.5,2.9,1,4.3,1.6c1.4,0.6,2.9,1.3,4.3,1.9c1.4,0.7,2.9,1.3,4.3,2c2.9,1.3,5.8,2.5,8.8,3.3   c1.5,0.4,3,0.7,4.4,1c1.5,0.2,3,0.3,4.5,0.3c1.5-0.1,2.9-0.3,4.4-0.6c1.5-0.3,2.9-0.7,4.4-1.2c1.4-0.5,2.9-1,4.3-1.6   s2.9-1.2,4.3-1.7c1.5-0.6,3.1-1.2,4.6-1.7s3.1-0.9,4.6-1.3c3.1-0.6,6.2-0.8,9.4-0.2c1.7,0.3,3.4,0.9,5.1,1.6c1.7,0.7,3.3,1.6,5,2.6   c3.2,2,6.5,4.4,9.6,7c1.6,1.3,3.2,2.7,4.9,4.2c1.6,1.4,3.2,2.9,4.8,4.3c3.2,2.9,6.5,5.6,9.8,8.2c4,3.1,7.9,5.5,12.1,7.5   c0.1,0.1,0.2,0.1,0.3,0.2"/>
	<path class="st1" d="M0,452.4c1.4-0.1,2.8-0.2,4.2-0.2c2.1,0,4.1,0,6.1,0.1c6.5,0.2,13,0.5,19.4,0.7c6.5,0.2,13.1,0.3,19.6,0.3   c6.4-0.1,12.8-0.3,19.2-0.7c6.5-0.5,12.9-1.2,19.3-2.2c6.7-1.1,13.4-2.5,20.1-4.2c6.7-1.7,13.3-3.8,20-6.1   c6.6-2.3,13.1-4.7,19.7-7.1c6.6-2.5,13.4-5,20.3-7.2c6.9-2.3,14-4.3,21.1-5.9c7.1-1.5,14.3-2.5,21.5-2.9c7.2-0.4,14.4-0.2,21.6,0.6   c7.2,0.8,14.4,2.2,21.6,4.1c7.2,1.9,14.4,4.1,21.6,6.5c7.2,2.4,14.4,4.9,21.6,7.3s14.4,4.6,21.6,6.6c7.2,2,14.4,3.8,21.6,5.2   c7.2,1.5,14.4,2.7,21.6,3.6c7.2,0.9,14.4,1.6,21.6,2.1c7.2,0.5,14.4,0.8,21.6,1c7.2,0.2,14.4,0.3,21.6,0.4   c7.2,0.1,14.4,0.1,21.6-0.1c7.2-0.2,14.3-0.5,21.3-1.4c7-0.9,13.9-2.5,20.5-5.6s12.8-7.9,18.7-13.8c5.9-5.9,11.6-12.9,17.4-17.4   c5.8-4.5,11.9-6.5,17.7-4.9c5.8,1.6,11.5,6.7,17.3,11.9c5.9,5.1,12,10.2,18.1,11.5c1.5,0.3,3.1,0.4,4.6,0.3   c0.8-0.1,1.5-0.2,2.3-0.3c0.8-0.2,1.5-0.4,2.3-0.6c1.5-0.5,3-1.2,4.5-2c1.5-0.8,2.9-1.8,4.4-2.8c1.5-1.1,2.9-2.3,4.3-3.5   c1.4-1.2,2.9-2.5,4.3-3.8c1.4-1.3,2.9-2.5,4.3-3.7c1.4-1.2,2.9-2.3,4.4-3.2c1.4-0.9,2.9-1.6,4.3-2.2c1.5-0.6,2.9-0.9,4.4-1.1   c1.5-0.2,3-0.2,4.5,0.1c1.5,0.2,3,0.7,4.4,1.3c1.6,0.7,3.1,1.7,4.6,2.8c1.5,1.1,3,2.4,4.4,3.7c1.4,1.3,2.9,2.8,4.3,4.2   c1.4,1.4,2.8,2.9,4.2,4.4c3,3.1,6,6.1,9.1,8.9s6.3,5.3,9.5,7.3c3.2,2,6.4,3.5,9.7,4.7c3.3,1.2,6.6,2.1,9.9,2.7   c3.3,0.7,6.5,1.1,9.7,1.5c3.3,0.3,6.5,0.5,9.8,0.7c4,0.2,8.2,0.3,12.4,0.4"/>
	<path class="st1" d="M0,621.2c0.1,0,0.1,0.1,0.2,0.1c1.1,0.7,2.2,1.3,3.3,1.7c1.1,0.5,2.2,0.8,3.4,1.1s2.3,0.4,3.4,0.6   c3.3,0.5,6.4,0.8,9.7,1.1c3.2,0.3,6.5,0.5,9.7,0.7c6.5,0.5,13.1,1.1,19.6,1.9c6.4,0.8,12.8,1.9,19.2,3.2c6.5,1.3,12.9,2.9,19.3,4.7   c6.6,1.9,13.5,4,20.1,6.2c3.3,1.1,6.7,2.2,10,3.3c3.3,1.1,6.7,2.2,10,3.3c6.6,2.1,13.1,4.1,19.7,5.9c6.6,1.8,13.4,3.4,20.3,4.7   c6.9,1.3,14,2.4,21.1,3.3c7.1,0.8,14.3,1.3,21.5,1.5c7.2,0.2,14.4,0,21.6-0.6c7.2-0.6,14.4-1.6,21.6-3.1c7.2-1.5,14.4-3.6,21.6-6.4   c7.2-2.7,14.4-6.1,21.6-9.6c7.2-3.5,14.4-7.2,21.6-10c7.2-2.8,14.4-4.6,21.6-4.6c7.2,0,14.4,1.7,21.6,4.7c7.2,3,14.4,7.2,21.6,11.3   c7.2,4.1,14.4,8,21.6,11c7.2,3,14.4,5.1,21.6,6.3c7.2,1.2,14.4,1.5,21.6,0.8c7.2-0.7,14.3-2.4,21.3-5.6c7-3.2,13.9-7.8,20.5-12.9   s12.8-10.8,18.7-14.1c5.9-3.3,11.6-4.4,17.4-2.4c5.8,2,11.9,7.1,17.7,11.9c5.8,4.8,11.5,9.5,17.3,12.1c5.9,2.6,12,3.2,18.1,1.3   c1.6-0.5,3.1-1.1,4.7-1.9c1.5-0.8,3.1-1.6,4.6-2.6c3-1.9,6-4.2,8.9-6.7c2.9-2.4,5.7-5.1,8.6-7.6c2.9-2.5,5.8-4.9,8.7-6.8   c2.8-1.8,5.8-3.2,8.7-4.1c1.5-0.4,3-0.7,4.5-0.9c1.5-0.2,3-0.2,4.5,0c1.5,0.2,3,0.5,4.4,0.9c1.5,0.4,2.9,0.9,4.4,1.5   s2.9,1.2,4.3,1.9c1.4,0.6,2.9,1.3,4.3,1.9c1.5,0.6,3.1,1.3,4.6,1.8s3.1,1,4.6,1.4c1.6,0.4,3.1,0.6,4.7,0.8c1.6,0.1,3.1,0.1,4.7,0   c1.6-0.2,3.3-0.5,4.9-1c1.6-0.4,3.3-1,4.9-1.5c1.6-0.5,3.3-1.1,4.9-1.6c1.6-0.5,3.3-1,4.9-1.3c3.3-0.7,6.6-0.8,9.9-0.1   c1.6,0.4,3.3,0.9,4.9,1.7c1.6,0.8,3.2,1.7,4.7,2.9c2.4,1.7,4.6,3.8,6.8,6.3c1.9,2.2,3.8,4.5,5.6,7.1"/>
	<path class="st1" d="M0,97.2c1.3-1.6,2.6-3.1,3.9-4.6C6,90.3,8.1,88,10.3,86c1.5-1.4,3.1-2.7,4.6-3.9c1.6-1.2,3.2-2.2,4.8-3   c1.6-0.8,3.3-1.5,5-1.8c0.8-0.2,1.7-0.3,2.5-0.4c0.8-0.1,1.7-0.1,2.5,0c0.9,0.1,1.7,0.2,2.5,0.4c0.8,0.2,1.7,0.4,2.5,0.7   c1.7,0.6,3.3,1.3,5,2.2c3.2,1.7,6.5,4,9.6,6.4c1.6,1.2,3.2,2.5,4.8,3.8s3.2,2.6,4.8,3.9c3.2,2.6,6.4,5.2,9.6,7.4   c3.1,2.2,6.3,4,9.6,5.6c3.2,1.6,6.5,2.9,9.8,3.9c3.3,1,6.7,1.8,10,2.4c3.3,0.6,6.7,1,10.1,1.3c6.7,0.6,13.3,0.9,20,0.9   c6.6,0.1,13.1,0,19.7-0.4c6.6-0.4,13.4-1.1,20.3-2.9c6.9-1.8,14-4.6,21.1-9.6c7.1-5,14.3-12.3,21.5-18.2c7.2-6,14.4-10.6,21.6-11.7   c7.2-1,14.4,1.6,21.6,1.8c7.2,0.2,14.4-2,21.6-3c7.2-1,14.4-0.8,21.6,3.3c7.2,4,14.4,11.8,21.6,18.3c7.2,6.4,14.4,11.5,21.6,14.8   c7.2,3.3,14.4,4.9,21.6,5.7c7.2,0.8,14.4,1,21.6,0.5c7.2-0.5,14.4-1.6,21.6-3.9c7.2-2.4,14.4-6,21.6-11.5   c7.2-5.5,14.4-12.7,21.6-17.1c7.2-4.4,14.3-6.1,21.3-3.4c7,2.7,13.9,9.6,20.5,15s12.8,9.1,18.7,10c5.9,0.8,11.6-1.3,17.4-6.1   C532,92.6,538,85,543.8,80.5c5.8-4.5,11.5-5.9,17.3-3.3c5.9,2.6,12,9.2,18.1,13.7c6.1,4.5,12.2,6.8,18.1,6c1.5-0.2,3-0.6,4.5-1.2   c1.5-0.6,2.9-1.3,4.4-2.2c2.9-1.7,5.7-3.9,8.4-6.2c1.4-1.2,2.9-2.4,4.3-3.6c1.4-1.2,2.9-2.4,4.3-3.5c1.5-1.1,2.9-2.1,4.4-3   c1.5-0.9,3-1.6,4.6-2.1c3-0.9,5.9-0.9,8.9,0c1.5,0.4,2.9,1,4.4,1.8c1.4,0.8,2.8,1.7,4.2,2.7c1.6,1.2,3.2,2.5,4.7,3.9   c1.5,1.4,3.1,2.9,4.6,4.3c3.1,2.9,6.1,5.9,9.3,8.4c3.1,2.5,6.3,4.7,9.6,6.4c1.6,0.9,3.3,1.6,5,2.2c1.7,0.6,3.4,1.1,5,1.5   c1.6,0.4,3.3,0.6,4.9,0.7c1.6,0.1,3.3,0,4.9-0.2c1.6-0.2,3.3-0.5,4.9-1c1.6-0.5,3.2-1,4.8-1.7c2.2-0.9,4.3-2,6.4-3.4   c2-1.3,4-2.7,6-4.3"/>
	<path class="st1" d="M0,42.1c3.4-0.9,6.7-2.1,10.2-3.6c3.3-1.5,6.6-3.2,9.9-5.2c3.3-2,6.5-4.2,9.7-6.6c1.6-1.3,3.3-2.6,4.9-3.9   c1.6-1.3,3.3-2.7,4.9-4c3.2-2.7,6.6-5.4,9.9-7.8c3.1-2.2,6.2-4.3,9.4-5.8c1.6-0.8,3.2-1.4,4.8-1.8c0.8-0.2,1.6-0.4,2.5-0.5   c0.8-0.1,1.6-0.2,2.5-0.2c0.8,0,1.7,0,2.5,0.1c0.8,0.1,1.7,0.2,2.5,0.4c1.6,0.4,3.3,0.9,4.9,1.6c3.2,1.4,6.4,3.4,9.5,5.6   c3.4,2.5,6.8,5.5,10.1,8.5c1.7,1.5,3.3,3,5,4.4c1.7,1.5,3.3,2.9,5,4.3c3.2,2.6,6.5,5,9.8,7c3.3,2,6.7,3.8,10.1,5.1   c3.2,1.2,6.5,2.1,9.8,2.7c3.3,0.6,6.6,1,9.9,1.2c6.8,0.5,13.5,0.5,20.3,0c6.9-0.5,14-1.5,21.1-3.8s14.3-5.7,21.5-11.6   c7.2-5.8,14.4-14,21.6-19.7c7.2-5.6,14.4-8.6,21.6-8.5c7.2,0.2,14.4,3.5,21.6,3.6c7.2,0.1,14.4-3.1,21.6-3.6   c7.2-0.5,14.4,1.8,21.6,7c7.2,5.3,14.4,13.6,21.6,19.8c7.2,6.2,14.4,10.1,21.6,12.6c7.2,2.4,14.4,3.3,21.6,3.5   c7.2,0.1,14.4-0.5,21.6-2.2c7.2-1.8,14.4-4.7,21.6-10.3c7.2-5.6,14.4-14,21.6-19.3c7.2-5.3,14.3-7.7,21.4-5.1   c7,2.6,14,10.1,20.5,15.4c6.6,5.3,12.8,8.3,18.7,7.9s11.5-4.2,17.4-9.5C532,14.5,538,7.5,543.9,5.4c5.8-2.1,11.4,0.5,17.3,5.6   c1.5,1.3,3.1,2.8,4.6,4.3c1.5,1.5,3,3.1,4.5,4.6c2.9,3.1,6,6.3,9.1,8.8c2.9,2.4,5.8,4.3,8.9,5.7c1.5,0.7,3.1,1.3,4.6,1.7   c1.5,0.5,3.1,0.8,4.7,0.9c1.5,0.2,2.9,0.2,4.4,0.1s2.9-0.3,4.4-0.7c1.4-0.4,2.9-0.9,4.3-1.5c1.4-0.6,2.8-1.4,4.2-2.3   c3.1-2,6.1-4.6,9-7.4c1.5-1.4,2.9-2.8,4.4-4.3c1.4-1.5,2.9-2.9,4.3-4.4c1.4-1.4,2.8-2.9,4.2-4.2s2.8-2.7,4.2-3.9   c1.4-1.2,2.9-2.3,4.4-3.3c1.5-0.9,3-1.6,4.6-2c0.8-0.2,1.6-0.3,2.4-0.4c0.8-0.1,1.6,0,2.4,0c0.8,0.1,1.6,0.2,2.4,0.4   c0.8,0.2,1.6,0.5,2.4,0.8c1.6,0.6,3.1,1.5,4.6,2.5c1.5,1,3,2.1,4.4,3.4c1.7,1.4,3.4,3.1,5,4.7c1.6,1.7,3.3,3.4,4.9,5.1   c1.6,1.7,3.2,3.5,4.9,5.1c1.6,1.7,3.3,3.3,5,4.8c3.1,2.8,6.3,4.9,9.6,6.7c3.3,1.8,6.6,3.1,10,4.2c4.1,1.3,8,2.2,12.2,2.9   c0,0,0.1,0,0.1,0"/>
	<path class="st1" d="M0,128.1c0.1,0,0.1-0.1,0.2-0.1c1.1-0.7,2.2-1.3,3.3-1.8c1.1-0.5,2.3-0.8,3.4-0.9c1.1-0.2,2.3-0.2,3.4,0   c0.9,0.1,1.7,0.3,2.6,0.5c0.9,0.2,1.7,0.5,2.5,0.9c1.7,0.7,3.3,1.7,4.9,2.8c1.6,1.1,3.2,2.4,4.8,3.7s3.1,2.8,4.6,4.2   c3.3,3.1,6.5,6.4,9.7,9.5c3.2,3.1,6.6,6.2,9.9,8.8c3.1,2.4,6.2,4.4,9.4,6c3.2,1.6,6.5,2.9,9.8,3.9c3.2,1,6.4,1.6,9.7,2.1   c3.2,0.5,6.5,0.8,9.7,1.1c6.6,0.5,13.4,0.6,20.1,0.7c6.7,0.1,13.3,0.1,20-0.1c3.3-0.1,6.6-0.2,9.8-0.3c3.3-0.2,6.6-0.4,9.8-0.8   c6.6-0.7,13.4-2,20.3-4.7c6.9-2.7,14-6.9,21.1-12.9c7.1-6,14.3-13.9,21.5-17.8c7.2-3.9,14.4-4,21.6-1.4c7.2,2.6,14.4,7.8,21.6,8.9   c7.2,1.1,14.4-2,21.6-5.3c7.2-3.3,14.4-7,21.6-6.7c7.2,0.3,14.4,4.5,21.6,9.5c7.2,5,14.4,10.8,21.6,14.7c7.2,3.9,14.4,6,21.6,6.6   c7.2,0.6,14.4-0.2,21.6-2.3c7.2-2.1,14.4-5.6,21.6-9.9c7.2-4.3,14.4-9.5,21.6-12.8c7.2-3.3,14.4-4.7,21.6-2.7   c7.2,1.9,14.3,7.2,21.3,12.5c7,5.3,13.9,10.8,20.5,13.9s12.8,4.1,18.7,2.8c5.9-1.3,11.6-4.8,17.4-10.5c5.8-5.6,11.9-13.4,17.7-18   c5.8-4.6,11.5-6,17.3-4.3c5.9,1.6,12,6.3,18.1,7.9c1.5,0.4,3,0.6,4.5,0.7c1.5,0.1,3,0,4.6-0.3c1.5-0.2,3-0.6,4.5-1   c1.5-0.4,3-1,4.5-1.6c1.4-0.6,2.9-1.2,4.3-1.8c1.4-0.6,2.9-1.3,4.3-1.8c1.4-0.6,2.9-1.1,4.3-1.5c1.5-0.4,2.9-0.7,4.4-0.8   c1.5-0.1,3,0,4.5,0.2c1.5,0.2,3,0.6,4.5,1.1c3,1,5.9,2.6,8.7,4.6c3,2,5.9,4.5,8.7,6.9c2.9,2.4,5.8,4.9,8.7,7c3,2.1,6,3.8,9.1,5   c1.6,0.6,3.1,1,4.7,1.3c1.6,0.3,3.2,0.4,4.8,0.4c1.7-0.1,3.4-0.3,5-0.7c1.7-0.4,3.3-1,5-1.7c3.3-1.4,6.5-3.3,9.6-5.6   c3.3-2.4,6.6-5.2,9.8-8.2c1.6-1.5,3.2-3,4.8-4.5c1.6-1.5,3.2-3,4.8-4.5c2.1-1.9,4.1-3.7,6.2-5.6c2.1-1.8,4.1-3.7,6.2-5.6   c0,0,0,0,0,0"/>
	<path class="st1" d="M0,140.5c0.2-0.1,0.4-0.1,0.6-0.2c1.1-0.3,2.1-0.4,3.2-0.5c1.1,0,2.2,0.1,3.2,0.4c1.1,0.3,2.2,0.6,3.2,1.1   c1.7,0.8,3.4,1.9,5.1,3.1c1.7,1.2,3.3,2.7,4.9,4.2c1.6,1.5,3.2,3.1,4.7,4.8c1.6,1.6,3.1,3.3,4.7,5c3.2,3.3,6.4,6.6,9.6,9.7   c3.2,3,6.6,5.9,10,8.2c3.1,2.1,6.2,3.8,9.5,5.2c3.2,1.4,6.4,2.3,9.7,3.1c3.2,0.7,6.4,1.3,9.7,1.6c3.2,0.4,6.5,0.6,9.7,0.8   c6.6,0.3,13.4,0.4,20.1,0.5c6.7,0,13.3,0,20-0.1c3.3-0.1,6.6-0.2,9.8-0.4c3.3-0.2,6.6-0.5,9.8-0.9c6.6-0.8,13.4-2.2,20.3-5.2   c6.9-2.9,14-7.5,21.1-13.6c7.1-6.1,14.3-13.8,21.5-17.1c7.2-3.3,14.4-2.2,21.6,1.3c7.2,3.5,14.4,9.4,21.6,11.3   c7.2,1.9,14.4-0.3,21.6-4s14.4-9.2,21.6-11.4c7.2-2.2,14.4-1.3,21.6,1.6c7.2,2.9,14.4,7.7,21.6,11.1c7.2,3.4,14.4,5.3,21.6,5.7   c7.2,0.4,14.4-0.8,21.6-3.2c7.2-2.4,14.4-5.9,21.6-9.1c7.2-3.2,14.4-6,21.6-6.2c7.2-0.2,14.4,2.3,21.6,6.6   c7.2,4.3,14.3,10.4,21.3,15.3c7,4.9,13.9,8.5,20.5,10.1s12.8,1.3,18.7-1.1c5.9-2.4,11.6-6.8,17.4-12.8c5.8-5.9,11.9-13.4,17.7-17.5   c5.8-4.1,11.5-4.8,17.3-3.3c5.9,1.4,12,4.9,18.1,5.4c1.5,0.1,3,0,4.6-0.2c1.5-0.2,3-0.5,4.5-1c1.5-0.4,3-0.9,4.5-1.4   c1.5-0.5,3-1,4.5-1.5c1.4-0.5,2.9-0.9,4.3-1.3c1.4-0.4,2.9-0.6,4.3-0.8c1.5-0.2,2.9-0.2,4.4-0.1c1.5,0.1,2.9,0.4,4.3,0.9   c1.5,0.5,3.1,1.2,4.6,2c1.5,0.8,3,1.8,4.5,2.9c2.9,2.1,5.8,4.5,8.7,7c2.8,2.4,5.7,5,8.6,7.2c1.4,1.1,2.9,2.2,4.4,3.1   c1.5,0.9,3,1.8,4.5,2.5c6.2,2.7,12.4,2.7,18.6,0.3c1.7-0.7,3.4-1.5,5-2.5c1.7-1,3.3-2,4.9-3.2c3.2-2.3,6.5-4.8,9.7-7.4   c3.2-2.6,6.4-5.2,9.6-7.5c1.6-1.2,3.2-2.3,4.9-3.3c1.7-1,3.3-1.9,5-2.6c2-0.9,4-1.6,6.1-2c1-0.2,2-0.4,3.1-0.5   c1-0.1,2.1-0.2,3.1-0.2c0.1,0,0.1,0,0.2,0"/>
	<path class="st1" d="M0,155.4c1.4-0.1,2.8,0,4.2,0.4c1.1,0.3,2.1,0.6,3.1,1.1c1,0.5,2,1.1,3,1.7c1.7,1.2,3.4,2.6,5.1,4.1   c1.7,1.5,3.3,3.2,4.9,4.9c1.6,1.7,3.2,3.5,4.7,5.3c1.6,1.8,3.2,3.6,4.7,5.4c6.1,6.7,12.9,13,19.6,17.2c3.1,1.9,6.3,3.5,9.5,4.6   c3.2,1.2,6.4,2,9.7,2.6c3.2,0.6,6.4,1,9.7,1.3c3.2,0.3,6.5,0.5,9.7,0.6c6.6,0.3,13.4,0.3,20.1,0.3c6.7,0,13.4,0,20-0.2   c6.6-0.2,13.1-0.5,19.7-1.3c6.6-0.9,13.4-2.3,20.3-5.4c6.9-3.1,14-7.7,21.1-13.9c7.1-6.1,14.3-13.7,21.5-16.6   c7.2-2.9,14.4-1.2,21.6,3c7.2,4.1,14.4,10.7,21.6,13.6c7.2,2.9,14.4,2.2,21.6-1.1c7.2-3.3,14.4-9.2,21.6-13.5   c7.2-4.3,14.4-7,21.6-7.5c7.2-0.5,14.4,1.3,21.6,2.7c7.2,1.4,14.4,2.4,21.6,2.6c7.2,0.1,14.4-0.7,21.6-1.8   c7.2-1.1,14.4-2.5,21.6-2.7c7.2-0.2,14.4,0.9,21.6,4c7.2,3.1,14.4,8.2,21.6,13.3c7.2,5.1,14.3,10.1,21.3,13.5   c7,3.4,13.9,5,20.5,5.1c6.6,0,12.8-1.7,18.7-5.2c5.9-3.5,11.6-8.9,17.4-14.9c5.8-6,11.9-12.5,17.7-15.7c5.8-3.2,11.5-3.1,17.3-2.1   c5.9,1,12,2.8,18.1,2.5c6.1-0.4,12.2-2.9,18.1-3.5c5.9-0.6,11.5,0.7,17.3,4.6c1.5,1,3,2.2,4.5,3.4c1.5,1.2,3,2.5,4.4,3.9   c1.5,1.3,2.9,2.7,4.4,4c1.4,1.3,2.9,2.6,4.4,3.9c2.8,2.3,5.6,4.3,8.5,5.8c1.5,0.8,2.9,1.4,4.4,1.8c0.7,0.2,1.5,0.4,2.3,0.6   c0.8,0.1,1.5,0.2,2.3,0.3c1.6,0.1,3.2,0,4.8-0.3c1.6-0.3,3.2-0.7,4.7-1.3c3.1-1.1,6.2-2.8,9.2-4.8c3.3-2.1,6.6-4.7,9.8-7.2   c1.6-1.2,3.3-2.5,4.9-3.6c1.6-1.2,3.3-2.3,5-3.3c1.6-1,3.2-1.8,4.8-2.5c1.6-0.7,3.2-1.3,4.9-1.7c3.3-0.8,6.6-0.9,9.9-0.2   c1.2,0.3,2.3,0.6,3.4,1.1c1.1,0.5,2.3,1,3.4,1.7c1.9,1.2,3.8,2.7,5.6,4.5"/>
	<path class="st1" d="M0,57.6c3.5-1.7,6.8-3.6,10.3-6c3.3-2.3,6.5-4.8,9.8-7.5c3.2-2.6,6.4-5.4,9.7-8c3.2-2.6,6.4-5.1,9.6-7.3   c1.6-1.1,3.3-2.1,4.9-3c1.7-0.9,3.4-1.6,5.1-2.2c1.6-0.5,3.2-0.9,4.8-1.1s3.2-0.2,4.8-0.1c1.6,0.1,3.2,0.4,4.8,0.9   c1.6,0.5,3.2,1,4.7,1.8c1.7,0.8,3.3,1.7,4.9,2.7c1.6,1,3.3,2.1,4.9,3.3c1.6,1.2,3.2,2.4,4.8,3.6c1.6,1.2,3.2,2.5,4.8,3.7   c3.3,2.6,6.6,5.1,9.9,7.5c3.3,2.4,6.7,4.6,10.1,6.5c3.3,1.8,6.6,3.3,9.9,4.5c3.3,1.2,6.7,2.1,10.1,2.8c3.3,0.7,6.5,1.2,9.8,1.5   c3.3,0.3,6.6,0.5,9.9,0.6c6.6,0.2,13.4,0,20.3-0.8c6.9-0.8,14-2.2,21.1-5.1c7.1-3,14.3-7.5,21.5-13.7c7.2-6.2,14.4-14,21.6-18.6   c7.2-4.6,14.4-5.8,21.6-5.8c7.2,0.1,14.4,1.5,21.6,1.2c7.2-0.3,14.4-2.3,21.6-0.9c7.2,1.4,14.4,6.1,21.6,12.1   c7.2,6,14.4,13.3,21.6,18.4c7.2,5.2,14.4,8.2,21.6,10c7.2,1.8,14.4,2.5,21.6,2.5c7.2,0,14.4-0.6,21.6-2.3   c7.2-1.7,14.4-4.6,21.6-9.8c7.2-5.2,14.4-12.7,21.6-18c7.2-5.3,14.3-8.5,21.3-6.8c7,1.7,13.9,8.4,20.5,13.6   c6.6,5.2,12.8,8.9,18.7,9.3c5.9,0.4,11.6-2.5,17.4-7.5c5.8-5,11.9-12,17.7-15c5.8-3,11.4-1.9,17.3,2.3c5.9,4.3,12,11.7,18.1,17   c2.9,2.4,5.8,4.5,8.8,6c1.5,0.8,3,1.4,4.6,1.9s3.1,0.8,4.7,1c1.5,0.2,2.9,0.2,4.4,0c1.5-0.2,2.9-0.5,4.4-1c1.5-0.5,2.9-1.1,4.3-1.9   c1.4-0.8,2.8-1.7,4.2-2.7c3-2.3,6.1-5.2,8.9-8.1c1.5-1.5,2.9-3,4.4-4.4c1.4-1.5,2.9-2.9,4.4-4.3c1.4-1.3,2.8-2.5,4.2-3.6   c1.4-1.1,2.8-2.1,4.3-3c1.5-0.9,2.9-1.6,4.5-2c0.8-0.2,1.5-0.4,2.3-0.5c0.8-0.1,1.5-0.1,2.3-0.1c0.8,0,1.6,0.1,2.4,0.3   c0.8,0.2,1.6,0.4,2.4,0.7c1.6,0.6,3.2,1.4,4.7,2.4c3.1,1.9,6.1,4.5,9,7.1c1.6,1.5,3.3,3,4.9,4.6c1.6,1.6,3.2,3.1,4.9,4.7   c3.2,3.1,6.6,6.2,9.9,8.7c3.2,2.4,6.3,4.3,9.6,5.8c3.3,1.5,6.6,2.6,9.9,3.5c4.1,1.1,8.1,1.8,12.2,2.4c0.1,0,0.1,0,0.2,0"/>
	<path class="st1" d="M0,72.1c3.5-2.5,6.8-5.3,10.3-8.4c1.6-1.4,3.2-2.9,4.8-4.4c1.6-1.5,3.2-2.9,4.8-4.4c3.2-2.9,6.5-5.6,9.8-7.9   c3.1-2.1,6.4-3.7,9.7-4.8c1.6-0.5,3.3-0.9,5-1c1.7-0.2,3.3-0.2,5,0c1.7,0.2,3.3,0.6,4.9,1.2c1.6,0.6,3.2,1.3,4.8,2.1   c3.2,1.7,6.3,3.8,9.4,6c1.6,1.2,3.2,2.4,4.8,3.6c1.6,1.2,3.2,2.5,4.8,3.7c3.2,2.5,6.4,4.9,9.7,7c6.5,4.3,13.3,7.6,20.1,9.9   c3.3,1.1,6.6,1.9,9.9,2.6c3.3,0.7,6.7,1.1,10,1.5c6.6,0.7,13.1,0.9,19.7,0.8c6.6-0.1,13.4-0.4,20.3-1.5c6.9-1.1,14-2.9,21.1-6.6   c7.1-3.7,14.3-9.2,21.5-15.6c7.2-6.4,14.4-13.6,21.6-17.1c7.2-3.5,14.4-3.4,21.6-3.3c7.2,0.1,14.4,0.2,21.6-0.3s14.4-1.3,21.6,1.4   s14.4,9.2,21.6,15.6c7.2,6.4,14.4,12.7,21.6,17c7.2,4.3,14.4,6.6,21.6,8c7.2,1.4,14.4,1.8,21.6,1.7c7.2-0.1,14.4-0.8,21.6-2.5   c7.2-1.8,14.4-4.6,21.6-9.7c7.2-5.1,14.4-12.4,21.6-17.8c7.2-5.4,14.3-8.8,21.3-7.2c7,1.5,13.9,8,20.5,13.3s12.8,9.4,18.7,10.3   c5.9,0.9,11.6-1.5,17.4-6.4C532,54.3,538,47,543.8,43.4c5.8-3.6,11.5-3.7,17.3,0c5.9,3.6,12,11,18.1,16.2c2.8,2.4,5.8,4.5,8.8,6   c1.5,0.8,3,1.4,4.6,1.8c0.8,0.2,1.5,0.4,2.3,0.5c0.8,0.1,1.6,0.2,2.3,0.3c1.5,0.1,3,0,4.5-0.3c1.5-0.3,2.9-0.7,4.4-1.3   c2.9-1.2,5.7-3.1,8.4-5.4c1.5-1.3,3-2.6,4.5-4.1c1.5-1.4,2.9-2.9,4.4-4.4c1.4-1.5,2.9-2.9,4.4-4.4c1.5-1.4,3-2.8,4.5-4   c1.4-1.1,2.8-2.1,4.2-2.9c1.4-0.8,2.9-1.5,4.3-2c3-1,5.9-1,8.9-0.1c1.7,0.5,3.3,1.3,4.9,2.3c1.6,1,3.2,2.1,4.7,3.4   c3,2.4,6.1,5.4,9.1,8.1c1.6,1.5,3.2,3,4.8,4.5c1.6,1.5,3.2,2.9,4.9,4.3c3.2,2.8,6.6,5.4,10,7.5c3.2,2,6.3,3.5,9.6,4.7   c3.3,1.1,6.5,1.9,9.9,2.4c3.8,0.6,8.5,1,12.3,1.4c0,0,0.1,0,0.1,0"/>
	<path class="st1" d="M0,85.4c1.4-1.4,2.8-2.8,4.3-4.3c2-2,4-4.1,6-6.1c3.1-3,6.3-6.1,9.4-8.6c1.6-1.3,3.3-2.4,4.9-3.4   c1.7-1,3.4-1.8,5.1-2.4c1.6-0.6,3.3-0.9,4.9-1.1c1.7-0.1,3.3-0.1,5,0.1c1.6,0.2,3.3,0.6,4.9,1.2c1.6,0.5,3.2,1.2,4.8,2.1   c1.7,0.9,3.3,1.8,4.9,2.9c1.6,1.1,3.2,2.2,4.8,3.5s3.2,2.5,4.7,3.7c1.6,1.3,3.2,2.5,4.7,3.8c3.2,2.5,6.3,4.8,9.6,6.9   c3.2,2.1,6.5,4,9.8,5.6c3.3,1.6,6.6,2.8,10,3.9c3.4,1,6.7,1.8,10.1,2.4c3.3,0.6,6.6,1,10,1.4c3.3,0.3,6.7,0.5,10,0.7   c6.6,0.3,13.1,0.3,19.7,0.1c6.6-0.3,13.4-0.8,20.3-2.2c6.9-1.4,14-3.7,21.1-8.1c7.1-4.4,14.3-10.9,21.5-17.2   c7.2-6.3,14.4-12.4,21.6-14.7c7.2-2.3,14.4-0.9,21.6-0.7c7.2,0.1,14.4-1,21.6-1.6s14.4-0.6,21.6,3.1c7.2,3.7,14.4,11.2,21.6,17.7   c7.2,6.5,14.4,12,21.6,15.7c7.2,3.7,14.4,5.5,21.6,6.5c7.2,1,14.4,1.3,21.6,1c7.2-0.3,14.4-1,21.6-3c7.2-1.9,14.4-5,21.6-10.2   c7.2-5.2,14.4-12.5,21.6-17.7c7.2-5.1,14.3-8.1,21.3-6.2c7,1.9,13.9,8.5,20.5,13.9c6.6,5.4,12.8,9.5,18.7,10.5   c5.9,1,11.6-1.1,17.4-5.9c5.8-4.8,11.9-12.2,17.7-16.3c5.8-4.1,11.5-5,17.3-1.9c5.9,3.1,12,10.1,18.1,15.1c6.1,5,12.2,7.9,18.1,7.7   c0.8,0,1.5-0.1,2.3-0.2c0.7-0.1,1.5-0.3,2.2-0.5c1.5-0.4,2.9-1,4.4-1.8c2.9-1.5,5.7-3.6,8.4-5.9c0.7-0.6,1.5-1.3,2.2-2   c0.7-0.7,1.5-1.4,2.2-2c1.4-1.4,2.9-2.8,4.4-4.1c1.4-1.4,2.9-2.7,4.4-3.9s3-2.4,4.6-3.3c1.4-0.8,2.8-1.5,4.3-2   c0.7-0.2,1.5-0.4,2.2-0.5c0.7-0.1,1.5-0.2,2.2-0.2c0.7,0,1.5,0,2.2,0.1c0.7,0.1,1.5,0.2,2.2,0.4c1.5,0.4,2.9,1,4.3,1.8   c1.6,0.9,3.2,2.1,4.8,3.3c1.6,1.2,3.1,2.6,4.7,4c3.1,2.8,6.1,5.9,9.2,8.7c3.1,2.9,6.4,5.6,9.6,7.9c3.3,2.3,6.6,4.4,10,6   c1.6,0.7,3.2,1.3,4.8,1.8c1.6,0.5,3.2,0.9,4.9,1.2c3.3,0.6,6.5,0.7,9.8,0.5c2-0.1,4.1-0.3,6.1-0.6c1-0.1,2-0.3,3.1-0.4   c1-0.1,2-0.3,3.1-0.4c0,0,0.1,0,0.1,0"/>
	<path class="st1" d="M0,107.9c1.1-1.5,2.3-2.9,3.5-4.1c2.2-2.4,4.4-4.4,6.8-6.1c1.6-1.1,3.1-1.9,4.7-2.6c0.8-0.3,1.6-0.6,2.4-0.8   c0.8-0.2,1.6-0.4,2.5-0.4c1.7-0.2,3.3-0.1,4.9,0.2c1.6,0.3,3.3,0.9,4.9,1.6c1.7,0.8,3.4,1.8,5.1,2.9c1.7,1.1,3.3,2.4,4.9,3.7   c1.6,1.3,3.2,2.7,4.8,4.1c1.6,1.4,3.2,2.8,4.8,4.2c3.1,2.7,6.3,5.3,9.5,7.7c3.2,2.4,6.4,4.5,9.7,6.3c3.2,1.7,6.4,3.1,9.6,4.2   c3.2,1.1,6.5,1.9,9.8,2.5c3.3,0.6,6.7,1.1,10,1.4c3.3,0.3,6.7,0.5,10.1,0.7c6.7,0.3,13.3,0.4,20,0.4c6.6,0,13.1-0.2,19.7-0.7   c6.6-0.5,13.4-1.4,20.3-3.5c6.9-2.1,14-5.4,21.1-10.9c7.1-5.5,14.3-13.2,21.5-18.6c7.2-5.4,14.4-8.5,21.6-8.2   c7.2,0.3,14.4,3.9,21.6,4.2c7.2,0.3,14.4-2.6,21.6-4.3c7.2-1.7,14.4-2,21.6,1.6c7.2,3.6,14.4,11.1,21.6,17.4   c7.2,6.3,14.4,11.4,21.6,14.8c7.2,3.4,14.4,4.9,21.6,5.7c7.2,0.8,14.4,0.7,21.6-0.2c7.2-0.9,14.4-2.5,21.6-5.6   c7.2-3.1,14.4-7.7,21.6-13.2c7.2-5.5,14.4-12.1,21.6-15.1c7.2-3,14.3-2.6,21.3,1.2c7,3.8,13.9,10.9,20.5,16   c6.6,5.1,12.8,8.2,18.7,8.5c5.9,0.4,11.6-2,17.4-7c5.8-5,11.9-12.6,17.7-17.3c5.8-4.7,11.5-6.5,17.3-4.3c5.9,2.2,12,8.3,18.1,12   c6.1,3.7,12.2,5.1,18.1,3.6c1.5-0.4,3-1,4.4-1.7c1.5-0.7,2.9-1.5,4.3-2.5c1.4-0.9,2.9-1.9,4.3-2.9c1.4-1,2.8-2,4.3-2.9   c1.4-1,2.9-1.9,4.3-2.8c1.4-0.9,2.9-1.6,4.4-2.3c1.5-0.7,3-1.2,4.5-1.6c0.8-0.2,1.5-0.3,2.3-0.4c0.8-0.1,1.5-0.1,2.3-0.1   c0.8,0,1.5,0.1,2.3,0.2c0.8,0.1,1.5,0.3,2.3,0.6c1.5,0.5,3,1.2,4.4,2c2.9,1.6,5.7,3.8,8.5,6.2c1.5,1.3,3.1,2.7,4.6,4.1   c1.5,1.4,3.1,2.8,4.6,4.1c3.1,2.7,6.2,5.2,9.4,7.2c3.2,2,6.4,3.4,9.7,4.2c1.6,0.4,3.3,0.7,5,0.8c1.7,0.1,3.3,0.1,5,0   c1.7-0.2,3.4-0.5,5-1c1.7-0.5,3.3-1.1,4.9-1.9c3.3-1.6,6.4-3.7,9.5-6.3c2.4-2,4.6-4.1,6.8-6.5c1.9-2.2,3.8-4.5,5.6-7.1"/>
	<path class="st1" d="M0,117.8c1.1-1.2,2.1-2.2,3.3-3.2c1.1-1,2.3-1.8,3.5-2.4c1.2-0.7,2.4-1.2,3.6-1.6c3.3-1,6.6-0.9,9.9,0.2   c1.6,0.5,3.2,1.3,4.8,2.2c1.6,0.9,3.1,2,4.7,3.2c3.3,2.5,6.7,5.6,9.9,8.6c1.6,1.5,3.2,3.1,4.9,4.6c1.6,1.5,3.3,3,4.9,4.4   c3.1,2.6,6.2,4.9,9.4,6.9c3.2,2,6.5,3.7,9.8,5c3.2,1.3,6.4,2.2,9.6,3c3.2,0.7,6.5,1.2,9.7,1.6c3.3,0.4,6.7,0.6,10,0.8   c3.3,0.2,6.7,0.3,10,0.4c6.7,0.1,13.3,0.2,20,0.1c6.6-0.1,13.1-0.3,19.7-0.9c6.6-0.6,13.4-1.7,20.3-4.1s14-6.2,21.1-12   c7.1-5.8,14.3-13.7,21.5-18.4c7.2-4.7,14.4-6.2,21.6-4.7c7.2,1.5,14.4,5.9,21.6,6.5c7.2,0.6,14.4-2.7,21.6-5.2   c7.2-2.5,14.4-4.2,21.6-1.9s14.4,8.7,21.6,14.7c7.2,6,14.4,11.5,21.6,15.2c7.2,3.7,14.4,5.5,21.6,6.2c7.2,0.7,14.4,0.4,21.6-1.1   c7.2-1.4,14.4-4,21.6-7.9c7.2-4,14.4-9.4,21.6-14.4c7.2-5,14.4-9.7,21.6-10.5c7.2-0.8,14.3,2.2,21.3,7c7,4.8,13.9,11.5,20.5,15.9   s12.8,6.5,18.7,6.1c5.9-0.4,11.6-3.2,17.4-8.5c5.8-5.3,11.9-13,17.7-17.8c5.8-4.8,11.5-6.5,17.3-4.7c5.9,1.8,12,7.3,18.1,10.1   c6,2.7,12.1,2.9,18.1,0.7c1.5-0.5,2.9-1.2,4.4-1.9c1.4-0.7,2.9-1.5,4.3-2.4c1.4-0.8,2.9-1.6,4.3-2.4c1.4-0.8,2.9-1.5,4.3-2.1   c1.4-0.6,2.9-1.1,4.4-1.5c1.5-0.4,3-0.6,4.4-0.7c1.5-0.1,3,0,4.5,0.2c1.5,0.2,3,0.6,4.4,1.2c1.5,0.6,3,1.4,4.5,2.3   c1.5,0.9,2.9,2,4.4,3.1c1.4,1.1,2.9,2.3,4.3,3.5c1.4,1.2,2.8,2.4,4.3,3.6c3,2.5,6,5,9.1,7.1c1.5,1.1,3.1,2,4.7,2.8   c1.6,0.8,3.2,1.5,4.8,2.1s3.3,0.9,4.9,1.1c1.6,0.2,3.3,0.2,4.9,0.1c1.7-0.1,3.3-0.4,4.9-0.8c1.6-0.4,3.3-1,4.9-1.7   c3.4-1.5,6.8-3.7,10-6.2c3.2-2.6,6.4-5.6,9.5-8.8c2.3-2.4,4.4-4.7,6.6-7.4c2-2.4,3.9-5,5.8-7.7"/>
	<path class="st1" d="M19.2,617.7C19.2,617.7,19.2,617.7,19.2,617.7"/>
	<path class="st1" d="M0,474.3c5.2,0.6,19,2,28.2,4.7c8,2.3,14.7,5,21.2,7.5c6.4,2.4,12.7,4.6,19.2,6.5c6.5,1.9,12.9,3.4,19.3,4.8   c6.6,1.4,13.4,2.5,20.1,3.5c6.6,1,13.3,1.7,20,2.4c6.6,0.6,13.1,1.1,19.7,1.4c6.6,0.3,13.4,0.4,20.3,0.4c6.9,0,14-0.3,21.1-0.7   c7.1-0.4,14.3-1.1,21.5-2.1c7.2-1,14.4-2.2,21.6-3.9c7.2-1.7,14.4-3.7,21.6-6.1c7.2-2.4,14.4-5.2,21.6-8.2c7.2-3,14.4-6.1,21.6-8.9   c7.2-2.8,14.4-5.2,21.6-6.7c7.2-1.5,14.4-2,21.6-1.3c7.2,0.6,14.4,2.4,21.6,5c7.2,2.6,14.4,6.1,21.6,9.6   c7.2,3.5,14.4,7.2,21.6,10.3c7.2,3.1,14.4,5.7,21.6,7.8c7.2,2.1,14.4,3.6,21.6,4.6c7.2,1,14.3,1.6,21.3,1.7   c7,0.1,13.9-0.2,20.5-1.5c6.6-1.3,12.8-3.4,18.7-7.4c5.9-3.9,11.6-9.5,17.4-15.7c5.8-6.2,11.9-13,17.7-16.3   c5.8-3.3,11.5-3,17.3,0.1c5.9,3.2,12,9.3,18.1,13.6c6.1,4.3,12.2,6.6,18.1,5.5c1.5-0.3,3-0.8,4.5-1.5c1.5-0.7,2.9-1.5,4.4-2.4   c1.4-0.9,2.9-2,4.3-3c1.4-1.1,2.8-2.2,4.2-3.3c2.8-2.2,5.7-4.5,8.6-6.4c1.5-0.9,3-1.8,4.5-2.4c0.8-0.3,1.5-0.6,2.3-0.8   c0.8-0.2,1.5-0.4,2.3-0.5c1.5-0.2,3-0.2,4.5,0.1c1.5,0.3,3,0.8,4.5,1.5c1.5,0.7,2.9,1.6,4.3,2.6c1.4,1,2.8,2.1,4.2,3.3   c1.6,1.4,3.2,2.9,4.7,4.5c1.5,1.6,3.1,3.1,4.6,4.7c3.1,3.2,6.2,6.4,9.3,9.1c6.3,5.5,12.9,9.5,19.6,12.1c3.2,1.3,6.4,2.2,9.7,2.9   c3.3,0.7,6.5,1.2,9.8,1.5c4.1,0.5,8.1,0.7,12.3,0.9c0,0,0.1,0,0.1,0"/>
	<path class="st1" d="M0,468.3c20.2,4.3,24.8,6,29.7,7.6c6.5,2.1,13.1,4,19.6,5.5c6.4,1.5,12.7,2.6,19.2,3.5   c6.5,0.9,12.9,1.5,19.3,1.9c6.6,0.4,13.4,0.7,20.1,0.8c6.6,0.1,13.3,0.1,20-0.1c6.6-0.2,13.1-0.5,19.7-1.1   c6.6-0.5,13.4-1.3,20.3-2.3s14-2.2,21.1-3.7c7.1-1.5,14.3-3.3,21.5-5.5c7.2-2.1,14.4-4.6,21.6-7.2c7.2-2.6,14.4-5.2,21.6-7.7   c7.2-2.5,14.4-4.7,21.6-6.4c7.2-1.7,14.4-3,21.6-3.4c7.2-0.4,14.4,0.1,21.6,1.5c7.2,1.4,14.4,3.8,21.6,6.7   c7.2,2.8,14.4,6.2,21.6,9.4c7.2,3.3,14.4,6.5,21.6,9.2c7.2,2.7,14.4,5,21.6,6.7c7.2,1.7,14.4,2.9,21.6,3.7   c7.2,0.8,14.4,1.3,21.6,1.6c7.2,0.2,14.3,0.3,21.3-0.2c7-0.4,13.9-1.2,20.5-3.2s12.8-5.1,18.7-9.9c5.9-4.8,11.6-11.3,17.4-17.2   c5.8-5.9,11.9-11.2,17.7-12.7c5.8-1.5,11.5,0.9,17.3,5.3c5.9,4.4,12,10.8,18.1,14.2c1.5,0.8,2.9,1.5,4.5,1.9c1.5,0.5,3,0.8,4.5,0.9   c1.5,0.1,3.1,0,4.6-0.2s3-0.7,4.5-1.4c1.5-0.7,3-1.5,4.5-2.5c1.5-1,2.9-2.1,4.3-3.2c1.4-1.1,2.8-2.3,4.3-3.5   c1.4-1.2,2.8-2.3,4.3-3.4c2.8-2.1,5.7-4.1,8.6-5.4c1.5-0.7,3-1.2,4.5-1.5c1.5-0.3,3-0.4,4.6-0.2c0.8,0.1,1.5,0.2,2.3,0.5   c0.8,0.2,1.5,0.5,2.3,0.8c1.5,0.7,3,1.5,4.4,2.5c2.9,2,5.7,4.6,8.4,7.3c1.5,1.5,3.1,3.1,4.6,4.7c1.5,1.6,3.1,3.2,4.6,4.7   c3.1,3.1,6.2,6.1,9.4,8.6c3.1,2.5,6.4,4.5,9.7,6.1c3.3,1.6,6.6,2.9,10,3.9c3.2,1,6.4,1.7,9.7,2.2c3.3,0.5,6.5,0.9,9.8,1.1   c4.1,0.3,8.1,0.5,12.3,0.6c0.1,0,0.1,0,0.1,0"/>
	<path class="st1" d="M0,464c0.2,0,0.3,0,0.5,0c4.6,0,5.6,0.1,6.7,0.2s2.1,0.2,3.1,0.4c3.2,0.5,6.5,0.9,9.7,1.4   c3.2,0.5,6.5,1,9.7,1.4c6.5,0.9,13.1,1.6,19.6,2.1c6.4,0.5,12.8,0.9,19.2,1c6.5,0.2,12.9,0.1,19.3-0.1c6.7-0.2,13.4-0.6,20.1-1.3   c6.7-0.6,13.3-1.5,20-2.6c6.6-1.1,13.1-2.4,19.7-4.1c6.6-1.6,13.4-3.6,20.3-5.7s14-4.4,21.1-6.7c7.1-2.3,14.3-4.6,21.5-6.8   c7.2-2.2,14.4-4.2,21.6-5.8c7.2-1.6,14.4-2.7,21.6-3.1c7.2-0.4,14.4-0.1,21.6,0.7c7.2,0.9,14.4,2.4,21.6,4.4s14.4,4.4,21.6,7.1   c7.2,2.7,14.4,5.6,21.6,8.3c7.2,2.7,14.4,5.3,21.6,7.4c7.2,2.1,14.4,3.9,21.6,5.2c7.2,1.3,14.4,2.3,21.6,2.9   c7.2,0.7,14.4,1.1,21.6,1.3c7.2,0.3,14.4,0.4,21.6,0.3c7.2-0.1,14.3-0.3,21.3-1c7-0.7,13.9-1.9,20.5-4.5c6.6-2.6,12.8-6.6,18.7-12   c5.9-5.5,11.6-12.4,17.4-17.6c5.8-5.2,11.9-8.8,17.7-8.6c5.8,0.2,11.5,4.2,17.3,9.2c5.9,4.9,12,10.8,18.1,13.2   c0.7,0.3,1.5,0.5,2.3,0.7c0.8,0.2,1.5,0.3,2.3,0.4c1.5,0.2,3.1,0.1,4.6-0.1c1.5-0.2,3-0.7,4.5-1.3c1.5-0.6,3-1.3,4.4-2.2   c1.5-0.9,2.9-2,4.4-3.1c1.4-1.1,2.9-2.4,4.3-3.6c1.4-1.2,2.9-2.5,4.3-3.6c1.4-1.2,2.9-2.3,4.4-3.3c1.4-1,2.8-1.8,4.3-2.5   c1.5-0.7,2.9-1.3,4.4-1.7c3-0.8,6-0.9,9,0.1c1.6,0.5,3.1,1.2,4.6,2.2c1.5,0.9,3,2.1,4.4,3.3c2.8,2.4,5.7,5.3,8.5,8.1   c1.5,1.5,3,3.1,4.6,4.6c1.5,1.5,3.1,3,4.6,4.5c3.1,2.9,6.2,5.7,9.5,7.9c3.2,2.2,6.4,3.9,9.7,5.3c3.3,1.4,6.6,2.4,10,3.2   c3.2,0.8,6.5,1.3,9.7,1.7c3.2,0.4,6.5,0.7,9.8,0.9c4.1,0.2,8.1,0.4,12.3,0.5c0.1,0,0.1,0,0.1,0"/>
	<path class="st1" d="M0,609.5c0.3-0.1,0.6-0.2,0.9-0.2c1-0.2,2.1-0.4,3.1-0.5c2.1-0.2,4.1-0.3,6.3-0.3c6.7,0,12.8,0.3,19.4,0.6   c6.5,0.3,13.1,0.5,19.6,0.7c6.4,0.1,12.8,0.2,19.2,0.1c6.5-0.1,12.9-0.3,19.3-0.6c6.7-0.3,13.4-0.8,20.1-1.5   c6.7-0.7,13.3-1.5,20-2.6c6.6-1,13.1-2.3,19.7-3.7c6.6-1.4,13.4-3,20.3-4.8s14-3.7,21.1-5.7c7.1-2.1,14.3-4.2,21.5-6.3   c7.2-2,14.4-3.9,21.6-5.1c7.2-1.2,14.4-1.8,21.6-1.7c7.2,0.1,14.4,1,21.6,2.7c7.2,1.7,14.4,4.1,21.6,6.9c7.2,2.8,14.4,6,21.6,8.9   c7.2,2.9,14.4,5.7,21.6,7.9c7.2,2.2,14.4,3.9,21.6,5c7.2,1.1,14.4,1.6,21.6,1.4c7.2-0.1,14.4-0.9,21.6-2.4   c7.2-1.5,14.4-3.7,21.6-6.7c7.2-3,14.4-6.7,21.6-10.6c7.2-3.8,14.3-7.7,21.3-10.2c7-2.4,13.9-3.3,20.5-2.2   c6.6,1.1,12.8,4.2,18.7,7.9c5.9,3.6,11.6,7.8,17.4,11c5.8,3.1,11.9,5.3,17.7,5.3c5.8,0,11.5-2,17.3-5.9c5.9-3.9,12-9.7,18.1-14.6   c6.1-5,12.2-9.1,18.1-10.6c1.4-0.4,2.9-0.6,4.4-0.6s2.9,0,4.4,0.3c1.4,0.2,2.9,0.6,4.3,1c1.4,0.4,2.9,1,4.3,1.6   c1.5,0.6,3,1.4,4.4,2.1c1.5,0.7,2.9,1.5,4.4,2.2c1.5,0.7,2.9,1.5,4.4,2.1c1.5,0.6,3,1.2,4.5,1.7c1.4,0.4,2.9,0.7,4.4,0.9   c1.5,0.2,2.9,0.2,4.4,0.2c1.5-0.1,2.9-0.2,4.4-0.5c1.5-0.3,2.9-0.6,4.3-1.1c1.5-0.5,3.1-1,4.6-1.6c1.5-0.6,3.1-1.2,4.6-1.7   c1.5-0.6,3.1-1.1,4.7-1.5c1.6-0.4,3.1-0.7,4.7-0.9c1.7-0.2,3.3-0.2,5,0c1.7,0.1,3.3,0.5,5,0.9c3.3,0.9,6.5,2.4,9.7,4.4   c3.4,2.2,6.7,5,9.9,7.9c1.6,1.5,3.2,3,4.8,4.5c1.6,1.5,3.2,3,4.8,4.5c4,3.7,7.8,6.9,12,9.8c0.1,0.1,0.3,0.2,0.4,0.3"/>
	<path class="st1" d="M0,613.9c3.8-0.1,6.9,0.2,10.3,0.9c6.5,1.3,13,2.4,19.4,3.4c6.5,1.1,13.1,2.1,19.6,3   c6.4,0.9,12.8,1.8,19.2,2.5c6.4,0.8,12.9,1.4,19.3,2c6.7,0.6,13.4,1.1,20.1,1.4c6.6,0.3,13.3,0.5,20,0.5c6.6,0,13.1-0.2,19.7-0.7   c6.6-0.4,13.4-1.1,20.3-2c6.9-0.9,14-2.1,21.1-3.6c7.1-1.5,14.3-3.4,21.5-5.5c7.2-2.1,14.4-4.5,21.6-6.9c7.2-2.4,14.4-4.9,21.6-7.1   c7.2-2.2,14.4-4.1,21.6-5.1c7.2-1,14.4-1.1,21.6-0.2c7.2,0.9,14.4,2.9,21.6,5.6c7.2,2.7,14.4,6.1,21.6,9.5   c7.2,3.4,14.4,6.7,21.6,9.5c7.2,2.7,14.4,4.8,21.6,6.1c7.2,1.3,14.4,1.9,21.6,1.8c7.2-0.1,14.4-0.9,21.6-2.6   c7.2-1.7,14.4-4.2,21.6-7.6c7.2-3.4,14.3-7.8,21.3-12.1c7-4.3,13.9-8.4,20.5-10.5c6.6-2,12.8-1.9,18.7,0.2   c5.9,2.1,11.6,6.1,17.4,10.4c5.8,4.3,11.9,8.8,17.7,11.3c5.8,2.5,11.5,2.8,17.3,0.9c5.9-1.9,12-6.2,18.1-11.3c3-2.5,6-5.1,9-7.7   c2.9-2.5,6.1-5,9.1-6.9c1.4-0.9,2.8-1.6,4.2-2.3c1.4-0.6,2.9-1.2,4.3-1.5c1.5-0.4,2.9-0.6,4.4-0.6c1.5-0.1,2.9,0,4.4,0.3   c1.5,0.3,3,0.7,4.5,1.2c1.5,0.5,3,1.1,4.4,1.8c1.5,0.7,2.9,1.4,4.4,2.1c1.5,0.7,2.9,1.4,4.4,2.1c1.4,0.7,2.9,1.3,4.3,1.9   c1.4,0.6,2.9,1.1,4.4,1.5c1.5,0.4,2.9,0.7,4.4,0.9c1.5,0.2,2.9,0.2,4.4,0.2c1.6-0.1,3.1-0.3,4.7-0.7c1.6-0.3,3.1-0.8,4.7-1.2   c1.5-0.5,3.1-1,4.6-1.5c1.5-0.5,3.1-1,4.6-1.4c1.6-0.5,3.3-0.8,4.9-1.1c1.6-0.3,3.3-0.5,4.9-0.6c1.6-0.1,3.3,0,4.9,0.2   c1.6,0.2,3.3,0.6,4.9,1.2c1.7,0.6,3.4,1.5,5.1,2.5c1.7,1,3.3,2.2,4.9,3.5c3.2,2.6,6.4,5.7,9.5,8.7c2,2,4,4.1,6,6.1c2,2.1,4,4,6.1,6   c0.1,0.1,0.2,0.2,0.3,0.3"/>
	<path class="st1" d="M0,695.2c1.3-0.7,2.5-1.3,3.9-1.8c1.1-0.4,2.1-0.8,3.2-1.1c1.1-0.3,2.1-0.6,3.2-0.9c3.2-0.8,6.5-1.6,9.7-2.3   c3.2-0.7,6.5-1.4,9.7-2.2c6.6-1.5,13.1-3,19.6-4.6c6.4-1.6,12.8-3.3,19.2-5c6.4-1.7,12.9-3.5,19.3-5.1c6.7-1.7,13.4-3.3,20.1-4.7   c3.3-0.7,6.6-1.3,10-1.8c3.3-0.5,6.7-1,10-1.3c6.6-0.6,13.1-0.7,19.7-0.1c6.6,0.6,13.4,1.8,20.3,3.8c6.9,1.9,14,4.6,21.1,7.6   c7.1,3,14.3,6.4,21.5,9.6c6.1,2.7,12.2,5.3,18.3,7.6c0.6,0.2,1.2,0.5,1.9,0.7c5.6,2.1,11.2,3.7,17,4.9c0.3,0.1,0.7,0.1,1,0.2   c1.7,0.4,3.4,0.7,5.1,1c7.1,1.2,14.4,1.8,21.6,1.8c7.3,0,14.4-0.6,21.6-1.9c7.4-1.2,14.6-3.2,21.6-5.7c7.2-2.6,14.4-6,21.6-9.8   c7.2-3.8,14.4-8,21.6-11.3c7.2-3.3,14.4-5.6,21.6-5.9c7.2-0.3,14.4,1.5,21.6,4.7c7.2,3.2,14.4,7.9,21.6,12.2   c3.7,2.2,7.4,4.3,11,6.2c0.1,0.1,0.2,0.1,0.3,0.2c9.3,4.3,9.8,4.4,10.2,4.6c7.2,2.7,14.3,4.1,21.3,4.2c7,0.1,13.9-1.1,20.5-3.9   s12.8-7.1,18.7-12c5.9-4.9,11.6-10.2,17.4-13.7c5.8-3.5,11.9-5.2,17.7-3.9c5.8,1.2,11.5,5.4,17.3,10.1c5.9,4.7,12,10,18.1,12.9   c1.5,0.7,3,1.3,4.5,1.7c1.5,0.4,3,0.8,4.5,0.9c1.5,0.2,3,0.2,4.6,0c1.5-0.2,3-0.5,4.5-0.9c1.5-0.5,3-1.1,4.5-1.9   c1.5-0.8,2.9-1.7,4.4-2.7c2.9-2,5.7-4.5,8.4-7.1c1.5-1.4,2.9-2.8,4.4-4.3c1.4-1.4,2.9-2.9,4.4-4.3c1.5-1.4,2.9-2.8,4.4-4.1   c1.5-1.3,3-2.5,4.5-3.6c1.4-0.9,2.8-1.8,4.2-2.4c1.4-0.7,2.9-1.1,4.4-1.5c3-0.6,5.9-0.6,8.9,0.1c1.6,0.4,3.1,0.9,4.7,1.5   c1.5,0.6,3.1,1.3,4.6,2c1.5,0.7,3.1,1.4,4.6,2.1c1.5,0.7,3.1,1.3,4.7,1.8c1.6,0.5,3.3,0.9,4.9,1.2c1.6,0.3,3.3,0.5,4.9,0.5   c1.6,0,3.3,0,4.9-0.2c1.6-0.2,3.3-0.5,4.9-1c1.6-0.5,3.3-1.1,4.9-1.8c1.6-0.7,3.2-1.4,4.8-2.1c1.6-0.7,3.2-1.3,4.9-1.8   c1.6-0.5,3.3-0.9,4.9-1.1c1.1-0.1,2.2-0.2,3.3-0.1c1.1,0.1,2.2,0.3,3.3,0.6c1.1,0.3,2.2,0.8,3.3,1.3c0.8,0.4,1.7,0.9,2.5,1.5"/>
	<path class="st1" d="M0,719.2c1.4-0.2,2.8-0.3,4.1-0.4c2-0.2,4.1-0.3,6.1-0.5c6.5-0.5,13-1,19.5-1.6c6.5-0.6,13.2-1.4,19.6-2.3   c6.4-0.9,12.8-1.9,19.2-3.2c6.5-1.3,12.9-2.7,19.3-4.4c6.7-1.7,13.5-3.7,20.1-5.9c6.7-2.2,13.3-4.5,20-6.9   c6.6-2.4,13.1-4.7,19.7-6.8c6.6-2.1,13.4-3.9,20.3-5c6.9-1.1,14-1.4,21.1-0.6c7.1,0.8,14.3,2.8,21.5,5.9c4.7,2,9.5,4.5,14.3,7.2   c38.6,20,44.6,21.9,50.6,23.2c7.2,1.5,14.4,2,21.6,2c7.2,0,14.4-0.6,21.6-1.8c7.2-1.2,14.4-2.9,21.6-5.6   c7.2-2.7,14.4-6.3,21.6-10.4c7.2-4.1,14.4-8.8,21.6-12.4c7.2-3.6,14.4-6.1,21.6-6.2c7.2-0.1,14.4,2.3,21.6,6.1c1.8,1,3.6,2,5.4,3.1   c28.3,17.6,32.9,19.8,37.5,21.2c7,2.2,13.9,2.8,20.5,1.9c6.6-0.9,12.8-3.4,18.7-7.2c5.9-3.8,11.6-8.9,17.4-14   c5.8-5.1,11.9-10.2,17.7-12.1c5.8-1.9,11.4-0.6,17.3,3.1s12,10,18.1,14.7c2.9,2.2,5.9,4.3,8.9,5.8c1.5,0.8,3,1.4,4.6,1.9   s3.1,0.8,4.7,1c1.5,0.1,3,0.1,4.4-0.2c1.5-0.2,2.9-0.7,4.4-1.3c1.5-0.6,2.9-1.3,4.3-2.2c1.4-0.9,2.8-1.9,4.1-3   c3-2.5,6.1-5.6,8.9-8.6c1.5-1.5,2.9-3.1,4.4-4.6c1.5-1.5,2.9-3,4.4-4.4c2.7-2.6,5.5-4.9,8.5-6.6c1.5-0.9,2.9-1.6,4.4-2.1   c0.8-0.3,1.5-0.5,2.3-0.6s1.5-0.2,2.3-0.3c0.8,0,1.6,0,2.4,0c0.8,0.1,1.6,0.2,2.4,0.3c1.6,0.3,3.1,0.8,4.7,1.4   c1.5,0.6,3.1,1.2,4.6,1.9c1.5,0.7,3.1,1.4,4.6,2.1c1.6,0.8,3.2,1.5,4.8,2.2c1.6,0.7,3.3,1.3,4.9,1.8c1.6,0.5,3.3,0.9,5,1.1   c1.7,0.2,3.3,0.2,5,0c0.8-0.1,1.7-0.3,2.5-0.6c0.8-0.3,1.7-0.6,2.5-0.9c1.6-0.7,3.3-1.6,4.9-2.5c0.8-0.5,1.6-1,2.4-1.4   c0.8-0.5,1.6-1,2.4-1.5c1.6-1,3.2-2,4.8-2.9c2-1.1,4-2.1,6-2.8c1-0.3,2-0.6,3.1-0.8c1-0.2,2.1-0.3,3.1-0.3c0,0,0.1,0,0.1,0"/>
	<path class="st1" d="M0,614.5c0.2,0,0.4,0,0.6,0c0.9,0,1.8,0,2.7,0.1c1.1,0.1,2.3,0.3,3.6,0.5c0.6,0.1,1.1,0.2,1.8,0.3   c0.4,0.1,0.8,0.2,1.3,0.2c0.2,0,0.3,0.1,0.4,0.1c1,0.2,2,0.4,3,0.6c0.6,0.1,1.2,0.3,1.8,0.4c1.6,0.4,3.2,0.8,4.9,1.2   c3.2,0.7,6.5,1.4,9.7,2.1c6.5,1.4,13.1,2.9,19.6,4.4c6.4,1.5,12.8,3,19.2,4.6c6.4,1.6,12.9,3.2,19.3,4.8c6.7,1.6,13.4,3.3,20.1,4.7   c6.6,1.5,13.3,2.8,20,3.8c6.6,1.1,13.1,1.9,19.7,2.5c6.6,0.6,13.4,1,20.3,1.1c6.9,0.1,14,0,21.1-0.4c7.1-0.4,14.3-1.1,21.5-2.1   c7.2-1.1,14.4-2.5,21.6-4.4c7.2-1.9,14.4-4.2,21.6-6.9c7.2-2.7,14.4-5.7,21.6-8.6c7.2-2.9,14.4-5.7,21.6-7.7   c7.2-2,14.4-3.2,21.6-2.9c7.2,0.3,14.4,1.9,21.6,4.7c7.2,2.8,14.4,6.6,21.6,10.4c7.2,3.8,14.4,7.6,21.6,10.6   c7.2,3,14.4,5.2,21.6,6.5c7.2,1.4,14.4,1.9,21.6,1.6c7.2-0.3,14.4-1.3,21.6-3.5c7.2-2.2,14.3-5.4,21.3-9.7   c7-4.3,13.9-9.7,20.5-14.2c6.6-4.4,12.8-7.8,18.7-8.5c5.9-0.7,11.6,1.4,17.4,5.3c5.8,3.9,11.9,9.7,17.7,14   c5.8,4.3,11.5,7.1,17.3,7.5c5.9,0.4,12-1.6,18.1-5.5c3.1-2,6.2-4.5,9.1-7c1.5-1.3,3-2.6,4.5-3.9c1.5-1.3,3-2.6,4.5-3.9   c2.8-2.3,5.6-4.6,8.5-6.4c1.4-0.9,2.9-1.7,4.4-2.4c1.5-0.7,3-1.2,4.5-1.6c2.9-0.7,5.9-0.7,8.9-0.3c1.5,0.2,3,0.5,4.4,1   c1.5,0.4,2.9,0.9,4.4,1.5c1.5,0.6,2.9,1.2,4.4,1.9c1.4,0.7,2.9,1.3,4.3,2c1.4,0.7,2.9,1.3,4.4,1.8c1.5,0.6,2.9,1,4.4,1.4   c1.5,0.4,3.1,0.6,4.7,0.7c1.6,0.1,3.1,0.1,4.7,0c1.6-0.1,3.1-0.3,4.7-0.6c1.6-0.3,3.1-0.6,4.6-1c1.6-0.4,3.3-1,4.9-1.5   c1.6-0.5,3.3-1,4.9-1.5c1.6-0.5,3.3-0.8,4.9-1.1c1.6-0.3,3.3-0.4,5-0.3c0.9,0,1.7,0.1,2.5,0.3c0.9,0.2,1.7,0.4,2.5,0.6   c1.7,0.5,3.3,1.3,5,2.2c3.3,1.8,6.4,4.4,9.4,7.2c2.1,2.1,4.3,4.3,6.3,6.6c2,2.3,4.1,4.8,6.1,7.2"/>
	<path class="st1" d="M0,315.7c1.4-1.4,2.8-2.9,4.2-4.3c2-2.1,4.1-4.2,6.1-6.2c3.1-3,6.3-6,9.5-8.5c1.6-1.3,3.3-2.4,4.9-3.4   s3.3-1.9,5.1-2.5c6.5-2.5,13.2-2,19.6,0.6c1.7,0.7,3.3,1.5,4.9,2.4c1.6,0.9,3.2,1.9,4.8,3c3.2,2.1,6.3,4.5,9.5,6.8   c1.6,1.2,3.2,2.4,4.8,3.5c1.6,1.2,3.2,2.3,4.8,3.4c3.2,2.2,6.5,4.3,9.7,6.1c6.6,3.6,13.3,6.3,20.1,8.1c3.3,0.9,6.6,1.6,10,2.2   c3.3,0.6,6.7,1,10,1.3c6.6,0.7,13.1,1,19.7,1.1c6.6,0.1,13.4,0.1,20.3-0.1c6.9-0.3,14-0.8,21.1-2c7.1-1.2,14.3-3.1,21.5-6.1   c7.2-3,14.4-7.2,21.6-11.7c7.2-4.5,14.4-9.4,21.6-13c7.2-3.6,14.4-5.8,21.6-6.5s14.4,0.3,21.6,1.9c7.2,1.6,14.4,3.8,21.6,5.8   c7.2,2,14.4,3.9,21.6,5.4c3.8,0.7,7.5,1.4,11.3,1.8c0,0,0.3,0,0.5,0.1c0.5,0.1,1.4,0.2,2,0.2c0.6,0.1,1.3,0.1,2,0.2   c1.9,0.2,4.1,0.4,5.9,0.5c3.8,0.2,8,0.3,11.8,0.2c1.9-0.1,4-0.2,5.9-0.3c1-0.1,3.1-0.2,3.9-0.3c0.2,0,0.4,0,0.4,0   c7.1-0.7,14.1-2,21.2-3.6c7.2-1.6,14.4-3.7,21.6-5.6c7.2-1.9,14.4-3.7,21.6-4.6c7.2-1,14.3-1.1,21.3,0c7,1,13.9,3.3,20.5,5.2   c6.6,1.9,12.8,3.6,18.7,3.1c5.9-0.5,11.6-3.1,17.4-6.5c5.8-3.4,11.9-7.5,17.7-8.7c5.8-1.2,11.5,0.4,17.3,4.5   c5.9,4.1,12,10.5,18.1,15c1.4,1,2.9,2,4.4,2.8c1.5,0.8,3,1.5,4.5,2c1.5,0.5,3,0.9,4.6,1.1c1.5,0.2,3.1,0.2,4.6-0.1   c1.5-0.2,3-0.7,4.5-1.3c1.5-0.6,2.9-1.4,4.4-2.4c2.9-1.8,5.7-4.1,8.4-6.5c1.4-1.2,2.9-2.5,4.3-3.7c1.4-1.2,2.9-2.5,4.3-3.6   c1.5-1.1,2.9-2.2,4.4-3.2c1.5-0.9,3-1.8,4.6-2.3c0.7-0.3,1.5-0.5,2.2-0.6c0.7-0.2,1.5-0.3,2.2-0.3c0.7,0,1.5,0,2.2,0   c0.7,0.1,1.5,0.2,2.2,0.3c1.5,0.3,2.9,0.9,4.4,1.6c1.4,0.7,2.9,1.6,4.2,2.6c1.6,1.1,3.2,2.5,4.8,3.9c1.6,1.4,3.1,2.9,4.6,4.4   c1.5,1.5,3.1,3,4.6,4.6c1.5,1.5,3.1,3,4.6,4.4c6.2,5.8,12.9,10.7,19.6,14.1c3.2,1.6,6.4,2.9,9.7,3.9c3.3,1,6.5,1.7,9.8,2.3   c4.1,0.7,8.1,1.2,12.3,1.5c0.1,0,0.1,0,0.2,0"/>
	<path class="st1" d="M0,418.8c3.4-0.1,6.9-0.2,10.3-0.3c6.6-0.3,12.9-0.7,19.4-1.5c6.5-0.8,13.2-2.1,19.6-3.8   c6.5-1.8,12.8-4.1,19.2-6.9c3.2-1.4,6.5-3,9.7-4.5c3.2-1.6,6.4-3.2,9.6-4.9c3.3-1.7,6.7-3.4,10-5.1c3.3-1.6,6.7-3.2,10.1-4.6   c3.3-1.4,6.6-2.6,9.9-3.6s6.7-1.8,10-2.4c3.3-0.6,6.5-0.9,9.8-1c3.3-0.1,6.6,0,9.9,0.2c6.6,0.6,13.4,1.9,20.3,3.8   c6.9,1.9,14,4.4,21.1,7c7.1,2.5,14.3,5.1,21.5,7.5c7.2,2.4,14.4,4.6,21.6,6.5c7.2,2,14.4,3.7,21.6,5.1c7.2,1.4,14.4,2.5,21.6,3.4   c7.2,0.8,14.4,1.4,21.6,1.8c7.2,0.4,14.4,0.6,21.6,0.8c7.2,0.1,14.4,0.2,21.6,0.2c7.2,0,14.4,0.1,21.6,0.1   c7.2,0.1,14.4,0.1,21.6,0.3c7.2,0.1,14.4,0.3,21.6,0.5c7.2,0.2,14.4,0.4,21.6,0.6c7.2,0.2,14.4,0.3,21.6,0.2   c7.2-0.1,14.3-0.4,21.3-1.5c7-1.1,13.9-3,20.5-6.7c6.6-3.7,12.8-9.4,18.7-15.6c5.9-6.2,11.6-12.9,17.4-16.3   c5.8-3.4,11.9-3.4,17.7-0.3c5.8,3.1,11.5,9.4,17.3,14.4c5.9,5.1,12,9,18.1,9.2c0.8,0,1.6,0,2.3-0.1c0.8-0.1,1.6-0.2,2.3-0.4   c1.6-0.4,3.1-1,4.6-1.7c3-1.5,6-3.6,8.8-5.9c1.4-1.2,2.9-2.5,4.3-3.8c1.4-1.3,2.8-2.6,4.3-3.9c1.4-1.3,2.9-2.6,4.3-3.7   c1.5-1.1,2.9-2.2,4.5-3c5.8-3.3,11.8-3.4,17.7-0.1c1.6,0.9,3.1,2,4.6,3.2c1.5,1.2,2.9,2.6,4.4,4c1.4,1.4,2.9,2.9,4.3,4.4   c1.4,1.5,2.8,3,4.2,4.5c3,3.1,6,6,9.1,8.7c3.1,2.6,6.3,5,9.5,6.9c3.2,1.9,6.4,3.3,9.7,4.3c3.3,1.1,6.6,1.9,9.9,2.5   c3.3,0.6,6.5,1,9.7,1.3c3.3,0.3,6.5,0.5,9.8,0.6c4,0.2,8.2,0.3,12.4,0.3"/>
</g>
</svg>